<svg xmlns="http://www.w3.org/2000/svg" width="602.362" height="161.787" version="1.0"><path d="M718.188 218.688c-.219.41-.032 1.226-.094 1.793v3.363c1.306.057 2.652-.133 3.933.138 1.109.398 1.02 1.768 1.035 2.737-.006 27.316.014 54.633-.01 81.95.001.798-.088 1.906-1.083 2.019-.704.071-1.418.011-2.125.03v5.157h23.093v-5.156c-1.35-.07-2.736.147-4.062-.125-1.085-.284-1.19-1.632-1.156-2.575v-90.8c-6.511.475-13.021.981-19.532 1.469zm55.062 0c-.218.41-.032 1.226-.094 1.793v3.363c1.222.089 2.508-.204 3.683.2 1.116.427 1.257 2.016 1.255 3.175-.008 27.21.014 54.421-.011 81.63-.045.892-.5 1.726-1.427 1.807-.59.097-1.187.054-1.781.063v5.156H796v-5.156c-.943-.076-1.972.196-2.844-.25-.603-.772-.288-1.88-.375-2.8.011-15.58-.022-31.159.017-46.738.067-2.559.153-5.289 1.438-7.566.358-.588.766-1.153 1.295-1.49 1.63-1.15 3.887-1.344 5.719-.594.812.389 1.224 1.199 1.496 2.1.614 2.955.298 6.007.379 9.006-.008 15.55.017 31.102-.012 46.65-.024.85-.614 1.672-1.524 1.665-.684.04-1.372.005-2.058.017v5.156h21.625v-5.156c-1.009-.085-2.298.3-3.031-.594-.544-1.242-.222-2.663-.313-3.981-.01-17.306.022-34.613-.015-51.919-.144-3.155-.673-6.509-2.703-9.037-1.318-1.653-3.315-2.708-5.39-3.156-3.225-.674-6.733-.631-9.728.876-2.524 1.178-4.488 3.273-6.19 5.423-.328.38-.795 1.256-1.005 1.35V217.22c-6.51.475-13.02.981-19.531 1.469zm-404.813.093v5.063c1.23.09 2.647-.304 3.688.531.42.237.764.73 1.046 1.2 1.192 2.007 1.24 4.459 1.235 6.738-.007 23.714.016 47.429-.011 71.143-.026 2.082-.405 4.38-1.582 6.044-.602.791-1.526 1.32-2.582 1.219-.567.062-1.383-.125-1.793.094v5.062h19.53v-5.156c-1.328-.068-2.694.145-4-.125-1.045-.396-1.66-1.212-2.096-2.24-1.2-3.017-.752-6.33-.84-9.498v-56.825c5.13 24.574 10.296 49.143 15.406 73.719h7.625c5.11-24.659 10.275-49.312 15.406-73.969-.009 21.235.016 42.471-.013 63.706-.064 1.661-.131 3.607-1.456 4.794-.552.364-1.395.51-2.125.438h-3.094v5.156h28.063v-5.156c-1.25-.113-2.666.314-3.768-.435-.888-.533-1.192-1.835-1.364-2.865-.344-2.9-.114-5.83-.18-8.744.008-23.2-.017-46.4.012-69.6.125-1.655.136-3.62 1.487-4.794.616-.423 1.615-.476 2.425-.437.503-.125 1.613.358 1.388-.494v-4.662h-23.469c-3.986 20.262-8.025 40.52-12.031 60.78-4.256-20.26-8.547-40.517-12.781-60.78h-24.125v.093zm199.657 0v5.063c1.452.09 2.965-.215 4.372.228 1.313.463 1.417 2.039 1.529 3.271.084 5.83.012 11.663.036 17.495-.006 21.243.012 42.488-.009 63.73-.006 1.005-.614 1.941-1.647 2.026-1.412.24-2.856.077-4.281.125v5.156h28.312v-5.156c-1.506-.082-3.056.187-4.531-.188-1.248-.395-1.512-1.945-1.61-3.143-.106-4.752-.017-9.509-.046-14.263v-23.344h18.625c-.012 12.342.024 24.684-.018 37.025-.088 1.278-.189 2.902-1.42 3.6-1.358.57-2.881.21-4.312.313-.796-.186-.301.92-.438 1.394v3.762h28.188v-5.156c-1.44-.098-2.957.239-4.34-.269-1.339-.633-1.41-2.351-1.455-3.656-.11-4.921-.019-9.846-.049-14.769.008-21.129-.016-42.259.012-63.387.085-1.454-.07-3.362 1.113-4.326 1.295-.78 2.891-.359 4.325-.468.757.127.244-1.014.394-1.494v-3.662h-28.188v5.156c1.486.08 3.014-.185 4.469.187 1.272.374 1.583 1.962 1.665 3.18.123 3.638.02 7.285.054 10.926v25.644h-18.625c.011-12.008-.023-24.017.017-36.024.049-1.109.143-2.454.858-3.257 1.177-1.014 2.857-.546 4.275-.656.695.084 1.287.066 1.037-.794v-4.363h-28.312v.094zm-37.813-.031c-1.825.157-3.457 1.194-4.562 2.594-.691.799-1.282 2.003-1.42 3.161-.396 2.504.875 4.98 2.68 6.626 1.35 1.323 2.993 2.325 4.74 3.056-2.462 2.762-5.137 5.322-7.782 7.907 1.08 1.15 2.14 2.318 3.22 3.469 3.137-2.395 6.207-4.948 8.745-8.009 1.966-2.254 3.569-5.032 3.898-8.066.31-3.415-1.288-6.91-3.956-8.988-.777-.615-1.87-1.237-2.941-1.493-.847-.236-1.744-.342-2.622-.257zm226.094 4.969c-1.615 4.743-3.183 9.557-5.573 13.972-.834 1.48-1.762 2.957-3.083 3.934-1.424 1.134-3.295 1.304-5.05 1.219-.894-.265-.858.4-.794 1.094v4.437h4.969c.01 18.344-.021 36.688.015 55.031.117 3.044.273 6.221 1.657 8.995a7.485 7.485 0 0 0 4.298 3.698c3.109 1.101 6.482 1.111 9.735.902 2.71-.288 5.526-1.23 7.3-3.387 1.381-1.44 2.133-3.425 2.546-5.368.802-3.548.421-7.21.511-10.815v-5.025h-5.5c-.032 4.516.069 9.036-.06 13.549-.13 1.35-.207 3.063-1.502 3.826-1.237.652-3.163.428-3.782-.969-.83-2.117-.48-4.462-.562-6.687V248.5h11.156v-5.656h-11.031v-19.188h-5.219l-.031.063zm-296.406 17.937c-4.041.239-7.921 2.141-10.673 5.08-2.07 2.074-3.701 4.554-4.913 7.226-2.852 6.129-4.015 12.898-4.474 19.6-.473 7.762-.208 15.602 1.181 23.263.91 4.51 2.335 9.006 4.936 12.835 1.557 2.13 3.458 4.053 5.818 5.309 3.387 1.867 7.359 2.328 11.174 2.102 3.326-.212 6.814-.821 9.545-2.852 1.575-1.25 2.923-2.835 3.727-4.706 1.715-3.873 2.004-8.192 1.944-12.375-.016-1.413-.102-2.823-.203-4.232h-5.375c.01 3.952.118 7.954-.687 11.844-.421 1.662-1.035 3.408-2.469 4.469-1 .62-2.387.992-3.65.993-2.153.099-4.621.018-6.381-1.212-1.017-.806-1.616-1.79-2.078-2.998-1.36-3.975-1.45-8.236-1.62-12.396-.18-5.377-.14-10.758-.146-16.137h23.656c-.053-6.467-.233-12.977-1.438-19.347-.803-4.022-1.992-8.156-4.562-11.403-1.463-1.771-3.294-3.227-5.466-4.018-2.498-.932-5.2-1.16-7.846-1.045zm50.406 0c-3.254.217-6.39 1.705-8.672 4.005-1.33 1.224-2.46 2.61-3.453 4.12V242c-6.459.433-12.916.911-19.375 1.344v5.156c1.16.058 2.36-.125 3.496.107 1.122.316 1.43 1.68 1.442 2.768.072 6.265.01 12.534.03 18.8-.013 12.764.027 25.53-.02 38.293.003.918-.3 2.014-1.294 2.153-1.16.201-2.355.052-3.529.098v5.156h22.719v-5.156c-.943-.076-1.972.196-2.844-.25-.628-.875-.278-2.082-.375-3.1.011-15.48-.022-30.959.017-46.438.062-2.559.156-5.29 1.45-7.558.303-.582.744-1.07 1.283-1.53.722-.441 1.687-.889 2.63-.95 1.358-.162 3.177.025 3.933 1.107 1.147 1.669.936 3.82 1.03 5.75-.008 17.095.017 34.193-.012 51.287-.053.84-.555 1.628-1.425 1.65-.714.072-1.438.012-2.156.032v5.156h21.625v-5.156c-1.009-.085-2.298.3-3.031-.594-.544-1.242-.222-2.663-.313-3.981-.01-17.306.022-34.613-.016-51.919-.143-3.155-.672-6.509-2.702-9.037-1.182-1.478-2.912-2.505-4.757-2.996-1.834-.513-3.786-.63-5.681-.536zm34.688.031c-4.1.285-8.19 2.058-10.811 5.272-1.478 1.63-2.43 3.7-3.073 5.805-1.103 3.666-.972 7.57-.571 11.335.541 4.396 2.344 8.578 5.032 12.085 2.802 3.796 6.099 7.224 9.157 10.832 1.427 1.639 2.913 3.245 4.157 4.948 1.842 2.376 3.537 4.986 4.031 8.01.408 2.423.376 4.982-.369 7.34-.384 1.061-.925 1.93-1.901 2.556-1.807 1.23-4.154 1.2-6.249.979-1.22-.213-2.444-.702-3.302-1.494-1.087-.843-1.689-2.057-2.307-3.288-1.742-4.078-1.993-8.566-2.736-12.89-.102-.576-1.124-.13-1.621-.27h-4.063v22.968h4.782c.296-1.37.724-2.873 1.833-3.805.661-.56 1.194.347 1.644.75 2.69 2.768 6.563 4.258 10.416 4.29 3.844.058 7.845-.894 10.888-3.329 1.88-1.582 3.46-3.563 4.383-5.873 1.873-4.35 1.916-9.231 1.369-13.862-.446-4.334-2.19-8.451-4.69-11.99-3.813-5.275-8.534-9.833-12.725-14.816-1.342-1.744-2.875-3.593-3.81-5.687-1.298-2.805-1.64-6.014-1.195-9.057.191-1.315.836-2.664 1.856-3.34 1.891-1.307 4.374-1.137 6.54-.78a6.222 6.222 0 0 1 3.178 1.811c.223.335.562.672.752 1.114 1.447 2.448 1.582 5.384 1.955 8.143.187 1.55.406 3.098.574 4.65h5.625v-21.25h-4.625c-.176 1.241-.017 2.617-.593 3.75-.467.093-.735-.589-1.13-.775a18.967 18.967 0 0 0-2.906-2.027c-2.883-1.606-6.183-2.46-9.495-2.105zm104.906-.03c-3.897.237-7.66 2.008-10.377 4.782-3.637 3.52-5.836 8.244-7.3 13.04-2.075 6.98-2.636 14.314-2.59 21.565.082 5.699.439 11.43 1.662 17.007.892 4.006 2.24 7.988 4.545 11.408 2.084 3.047 5.08 5.557 8.653 6.674 3.605 1.203 7.511 1.166 11.24.647 2.874-.434 5.823-1.418 7.878-3.539 2.023-1.885 3.14-4.51 3.763-7.175 1.027-4.302.894-8.778.588-13.16h-5.375c.06 3.832.105 7.707-.613 11.486-.328 1.67-.958 3.43-2.2 4.546-1.884 1.516-4.477 1.343-6.755 1.236-1.732-.15-3.501-.729-4.563-2.106-.993-1.32-1.568-3.126-1.877-4.818-.726-3.63-.76-7.355-.929-11.043-.106-4.912-.097-9.825-.094-14.738h23.656c-.053-6.467-.233-12.977-1.438-19.347-.806-4.02-1.988-8.16-4.562-11.403-1.462-1.771-3.294-3.227-5.466-4.018-2.495-.94-5.201-1.157-7.846-1.045zm41.187 0c-4.107.154-8.285 1.332-11.562 3.874-1.406 1.274-2.766 2.688-3.527 4.46-1.544 3.267-1.032 7.21.716 10.278a8.341 8.341 0 0 0 2.686 2.825c1.751.995 3.976 1.078 5.777.143 1.335-.612 2.42-1.694 3.16-2.956 1.137-2.25.463-5.111-1.263-6.848-1.48-1.757-3.415-3.039-5.456-4.058 1.798-1.282 4.067-1.713 6.225-1.944 1.944-.111 4.033-.092 5.793.816.78.46 1.366 1.087 1.65 2.001.8 2.623.431 5.413.52 8.115v10.793c-4.315 1.45-8.64 2.95-12.697 5.031-3.301 1.68-6.324 4.087-8.225 7.307-2.239 4.014-2.834 8.684-3.027 13.212-.2 4.792-.058 9.709 1.486 14.293.73 2.075 1.82 4.028 3.481 5.488 2.172 2.072 5.354 2.801 8.307 2.597 2.931-.156 5.833-1.313 7.951-3.34 1.643-1.547 3-3.357 4.037-5.369.458 2.013.985 4.112 2.25 5.781 1.138 1.408 2.794 2.337 4.598 2.643 2.998.498 6.217.519 9.051-.692 2.197-1.015 3.63-3.108 4.285-5.393.888-2.958.954-6.085 1.003-9.151h-4.656c-.042 2.352.119 4.754-.381 7.062-.191.997-1.42 1.21-2.213.844-.691-.698-.465-1.802-.551-2.7-.038-15.854.018-31.709-.028-47.563-.058-4.24-.832-8.714-3.484-12.144-1.318-1.572-2.948-2.905-4.857-3.715-3.447-1.518-7.324-1.825-11.049-1.69zm-230.062 6.218c1.295-.04 2.727.264 3.28 1.538.83 1.659.836 3.592.963 5.412.233 5.753.095 11.512.132 17.269h-9.844c.12-5.56.135-11.133.665-16.673.28-2.077.423-4.309 1.549-6.128.654-1.156 1.968-1.474 3.255-1.418zm190 0c1.295-.04 2.727.264 3.28 1.538 1.046 2.189.873 4.716 1.041 7.085.113 5.197.027 10.397.054 15.596h-9.844c.129-6.232.145-12.489.923-18.681.329-1.818.654-3.924 2.17-5.07.736-.39 1.555-.484 2.376-.468zm44.781 51.563c-.011 2.226-.054 4.6-1.106 6.607-.591 1.181-1.638 1.923-2.935 2.21-1.174.23-2.598.185-3.584-.38-.788-.575-1.192-1.442-1.44-2.447-.58-2.712-.475-5.518-.529-8.278.092-4.756-.146-9.586.914-14.256.368-1.597.998-3.127 1.961-4.457.46-.673 1.261-1.485 1.926-1.963.93-.823 2.024-1.47 3.135-2.158.558-.314 1.105-.649 1.658-.972v26.094zm-45.563-51.875c-1.652-.025-2.921 1.234-3.375 2.718-1.09 3.287-1.083 6.78-1.343 10.156-.2 3.94-.252 7.903-.313 11.844v.156h10.532v-.156c-.038-5.4.092-10.812-.063-16.219-.158-2.346-.034-4.904-1.219-7.093v-.031c-.448-.733-1.145-1.107-1.906-1.282-.761-.175-1.572-.147-2.313-.094zm0 .312c.73-.052 1.544-.069 2.25.094.707.162 1.322.507 1.72 1.156 1.113 2.081.996 4.604 1.155 6.969.154 5.344.03 10.677.063 16.031h-9.906c.06-3.889.115-7.775.312-11.656.262-3.395.244-6.842 1.313-10.063l.031-.031c.42-1.373 1.578-2.522 3.063-2.5zm-120.03-29.281c-1.877.16-3.56 1.226-4.688 2.656-.72.833-1.336 2.07-1.469 3.281-.418 2.708 1.05 5.309 3.031 7 1.227 1.176 2.737 2.034 4.282 2.719-2.416 2.693-5.033 5.185-7.625 7.719l-.094.125.093.094c1.078 1.149 2.14 2.316 3.22 3.468l.093.125.125-.094c3.14-2.396 6.231-4.955 8.781-8.03 1.98-2.272 3.603-5.079 3.938-8.157.315-3.474-1.319-7.012-4.032-9.125-.792-.628-1.895-1.268-3-1.531a7.252 7.252 0 0 0-2.656-.25zm0 .312c.854-.083 1.762.019 2.593.25 1.038.248 2.114.866 2.875 1.469 2.624 2.044 4.21 5.487 3.906 8.844-.325 2.989-1.923 5.73-3.875 7.969-2.497 3.011-5.527 5.537-8.625 7.906-1-1.07-1.997-2.147-3-3.219 2.613-2.553 5.25-5.109 7.688-7.844l.156-.156-.219-.094c-1.599-.69-3.163-1.557-4.406-2.75-1.917-1.636-3.303-4.153-2.906-6.719.123-1.13.7-2.344 1.375-3.125 1.081-1.37 2.664-2.379 4.437-2.53zm262.5-1.844c-6.512.486-13.022 1.003-19.532 1.5h-.094l-.062.094c-.139.26-.106.574-.094.906.012.333.028.68 0 .938v3.5h.156c1.256.095 2.508-.202 3.625.188.453.168.73.584.907 1.093.176.51.247 1.095.25 1.625-.008 27.31.025 54.629 0 81.938a2.172 2.172 0 0 1-.375 1.125c-.213.298-.489.495-.907.531h-.031c-.563.095-1.145.052-1.75.063h-.156v5.467h21.437v-5.467H796c-.96-.077-1.925.123-2.719-.25-.24-.338-.337-.736-.343-1.188-.008-.474.045-.984 0-1.469.01-15.58-.008-31.14.03-46.719.068-2.558.147-5.267 1.407-7.5.39-.596.686-1.043 1.25-1.468.62-.354 1.398-.763 2.156-.844 1.209-.194 2.659-.149 3.625.438.68.517 1.05 1.263 1.25 2.093.2.83.244 1.728.282 2.563.088 5.95.006 11.919.03 17.875-.008 11.65-.002 23.29-.03 34.937-.011.39-.137.782-.375 1.063-.239.28-.562.44-.97.437-.67.04-1.37.02-2.062.031h-.156v5.469h21.938v-5.468h-.157c-.53-.045-1.105.025-1.625 0-.504-.025-.922-.126-1.25-.5-.004-.01.004-.022 0-.032-.495-1.165-.227-2.543-.312-3.875v-.031c-.01-17.295.037-34.61 0-51.906-.146-3.168-.687-6.553-2.75-9.125-1.325-1.662-3.309-2.72-5.375-3.188-3.244-.69-6.797-.697-9.844.813-2.604 1.188-4.617 3.314-6.344 5.5-.179.207-.38.536-.562.812-.058.088-.105.146-.157.219v-32.187h-.156zm-.157.313v32.563l.219-.125c.116-.053.166-.112.25-.22.083-.107.188-.265.281-.405.185-.28.382-.578.531-.75 1.715-2.17 3.69-4.284 6.219-5.438 2.959-1.466 6.46-1.462 9.656-.781 2.009.455 3.92 1.47 5.188 3.062 1.994 2.486 2.512 5.795 2.656 8.938.037 17.305.02 34.631.031 51.937.088 1.285-.258 2.727.313 4.031l.031.032c.403.491.971.629 1.531.656.507.024 1.02-.018 1.469 0v4.844h-21.313v-4.844c.629-.005 1.264.038 1.907 0 .503.004.928-.252 1.218-.594.29-.341.456-.79.47-1.25.028-11.648-.009-23.288 0-34.937-.026-5.953.057-11.92-.032-17.875-.038-.833-.072-1.752-.281-2.625-.21-.873-.59-1.708-1.344-2.281h-.031c-1.07-.665-2.584-.73-3.844-.532-.01.002-.022-.001-.031 0-.842.098-1.668.588-2.282.938-.608.459-.953.964-1.343 1.562-1.31 2.323-1.402 5.097-1.469 7.656-.039 15.58.011 31.14 0 46.72v.03c.041.437-.008.936 0 1.438.008.502.074 1.012.406 1.438l.032.03.03.032c.89.455 1.881.215 2.75.25v4.844h-20.812v-4.844c.527-.002 1.074.026 1.625-.063.01 0 .021.002.032 0a1.612 1.612 0 0 0 1.156-.656c.258-.362.383-.842.406-1.312.026-27.31-.007-54.628 0-81.938-.002-.552-.055-1.188-.25-1.75s-.528-1.038-1.094-1.25c-1.18-.411-2.447-.163-3.593-.219V220.5c.028-.301.01-.628 0-.938a1.9 1.9 0 0 1 .093-.687c6.407-.49 12.812-1.022 19.219-1.5zm-54.906-.313c-6.512.486-13.021 1.003-19.532 1.5h-.093l-.063.094c-.138.26-.105.574-.093.906.011.333.028.68 0 .938v3.5h.156c1.418.089 2.848-.182 4.125.25.01.003.021-.003.031 0 .43.354.575.848.625 1.406.05.563-.002 1.182.031 1.75v.031c-.006 27.073.024 54.147 0 81.22v.03c.016.39-.018.833-.156 1.188s-.377.607-.813.656c-.681.096-1.376.051-2.093.063h-.157v5.436h23.407v-5.467h-.157c-1.372-.07-2.742.139-4.03-.125-.508-.15-.737-.526-.876-1-.139-.475-.157-1.047-.156-1.532v-90.843h-.156zm-.157.313v90.531c0 .489 0 1.089.157 1.625s.504 1.037 1.125 1.219c1.312.27 2.656.08 3.937.125v4.844H720v-4.813c.651-.003 1.327.032 2-.062.55-.063.866-.418 1.031-.844.166-.426.204-.93.188-1.344.023-27.083-.007-54.167 0-81.25-.035-.537.024-1.165-.032-1.781-.055-.616-.236-1.232-.78-1.656l-.032-.031c-1.342-.467-2.797-.195-4.125-.25V220.5c.029-.301.011-.628 0-.938a1.9 1.9 0 0 1 .094-.687c6.407-.49 12.812-1.022 19.218-1.5zm-169.625 1.188V224h.157c1.481.092 2.956-.208 4.312.219.515.157.853.55 1.063 1.062.205.503.286 1.122.343 1.656v.032c.184 4.209.05 8.43.094 12.656-.005 22.852.02 45.711 0 68.563.015.48-.082 1.046-.312 1.468-.23.422-.595.706-1.125.75-1.406.294-2.89.089-4.375.156h-.157v5.469h28.626v-5.468h-.157c-1.52-.083-3.045.164-4.468-.188-.584-.188-.933-.64-1.157-1.219-.224-.579-.335-1.268-.375-1.875-.095-5.215-.004-10.433-.031-15.656v-21.688h18.313c-.012 12.28.01 24.567-.032 36.844v.031c-.041.632-.069 1.35-.25 1.97-.18.614-.517 1.141-1.062 1.468-1.242.538-2.681.22-4.094.313-.021 0-.041-.002-.063 0-.208-.05-.406-.042-.53.062-.14.116-.18.274-.188.438-.016.327.068.71.031.906v4.062H631v-5.468h-.156c-1.473-.1-2.957.236-4.282-.25-.62-.294-.94-.824-1.125-1.47-.184-.645-.198-1.41-.218-2.062-.11-4.916-.033-9.824-.063-14.75.008-21.118-.028-42.257 0-63.375v-.031c.039-.73.04-1.564.157-2.313.118-.758.36-1.423.906-1.875 1.214-.732 2.754-.333 4.218-.437h.032c.098.013.168.028.25 0a.455.455 0 0 0 .218-.188c.095-.15.102-.323.094-.5a12.911 12.911 0 0 0-.031-.53c-.015-.167-.024-.298 0-.376v-3.843h-28.5V224h.156c1.502.084 3.005-.167 4.407.188.586.165.947.584 1.187 1.156.24.571.335 1.273.375 1.875.123 3.632.028 7.26.063 10.906v25.5h-18.313c.011-11.946-.009-23.9.031-35.844v-.031c.069-1.195.132-2.608 1-3.313 1.216-.73 2.753-.339 4.219-.437.02-.001.042.002.063 0 .205.055.386.082.53.031a.533.533 0 0 0 .313-.344c.1-.288.048-.62.032-.937v-4.187h-28.626zm.313.312h28v3.875c.018.328.026.678-.031.844-.029.083-.06.102-.125.125-.065.022-.172.031-.375-.031h-.062c-1.405.107-3.062-.328-4.438.5-1.026.831-1.088 2.366-1.157 3.562-.04 12.008.012 24.024 0 36.031v.156H609v-25.812c-.034-3.638.061-7.26-.063-10.906v-.031c-.04-.621-.142-1.344-.406-1.97-.263-.625-.677-1.146-1.375-1.343h-.031c-1.437-.364-2.906-.132-4.313-.188v-4.812h27.875v3.468c-.04.154-.046.302-.03.47.015.178.055.378.062.53.007.154-.004.27-.032.313-.013.022-.036.023-.062.031a.357.357 0 0 1-.156 0h-.032c-1.393.107-3.04-.323-4.406.5-.63.52-.907 1.297-1.031 2.094-.124.797-.117 1.625-.156 2.344-.028 21.129.008 42.277 0 63.406.03 4.92-.08 9.856.031 14.781.02.654.051 1.396.25 2.094s.594 1.348 1.313 1.688c1.387.51 2.883.217 4.25.281v4.844h-27.875v-3.688c.002-.01-.002-.02 0-.031.049-.311-.044-.66-.032-.906a.3.3 0 0 1 .094-.219c.028-.023.09-.057.281 0h.062c1.362-.101 2.865.287 4.25-.313l.032-.03c.66-.376.99-.98 1.188-1.657.197-.677.27-1.423.312-2.063.042-12.34-.012-24.69 0-37.03v-.157h-18.938v22c.027 5.219-.064 10.434.032 15.656v.031c.04.62.13 1.336.375 1.97.244.632.65 1.182 1.343 1.406h.032c1.467.372 2.97.132 4.406.187v4.844h-28v-4.844c1.386-.045 2.833.132 4.25-.156.017-.002.015-.03.031-.031.615-.07 1.085-.399 1.344-.875.266-.49.36-1.096.344-1.625.02-22.852-.006-45.711 0-68.563-.044-4.226.092-8.452-.094-12.688-.059-.55-.144-1.217-.375-1.78-.23-.565-.625-1.06-1.25-1.25-1.406-.443-2.87-.16-4.25-.22v-4.812zm-199.875-.25v5.281h2.156c1.175 0 2.118.687 2.781 1.969.664 1.282 1.032 3.164 1.032 5.438v71.843c0 2.214-.367 4.107-1.031 5.438-.665 1.33-1.612 2.062-2.782 2.062h-2.156v5.282h19.656v-5.282h-3.125c-1.3 0-2.241-.734-2.875-2.062-.633-1.329-.937-3.221-.937-5.438v-60.531l15.281 73.063.031.125h7.688l.031-.125 15.281-73.157v61.844c0 2.223-.182 3.833-.656 4.844-.474 1.01-1.179 1.437-2.375 1.437h-3.656v5.282h28.187v-5.282h-2.25c-1.196 0-1.93-.427-2.406-1.437-.475-1.01-.656-2.621-.656-4.844v-74.188c0-2.22.18-3.802.656-4.812.475-1.01 1.21-1.469 2.406-1.469h2.25v-5.281h-23.562l-.031.156-11.97 60.406-12.718-60.437-.031-.125h-24.219zm.344.344h23.625l12.844 61.062.312-.031v-.063l12.094-60.968h23v4.625h-1.938c-1.281 0-2.172.53-2.687 1.625-.516 1.095-.688 2.73-.688 4.969v74.187c0 2.24.172 3.873.688 4.969.515 1.096 1.406 1.656 2.687 1.656h1.938v4.625h-27.531V311h3.312c1.282 0 2.142-.56 2.656-1.656.515-1.096.719-2.729.719-4.969v-63.531h-.156l-.156-.031v.03h-.032v.126L403.844 315.5h-7.188l-15.562-74.406v-.031l-.156.03h-.157v62.064c0 2.246.302 4.165.969 5.563.667 1.398 1.73 2.281 3.156 2.281h2.813v4.625h-19V311h1.812c1.308 0 2.365-.885 3.063-2.281.697-1.396 1.062-3.314 1.062-5.563v-71.844c0-2.307-.363-4.212-1.062-5.562-.7-1.35-1.76-2.156-3.063-2.156h-1.812v-4.625zm387.594 4.531-.063.094-.031.062c-1.655 4.866-3.247 9.818-5.719 14.313-.806 1.338-1.682 2.66-2.875 3.531-1.433 1.175-3.392 1.252-5.219 1.188h-.031c-.225-.051-.412-.033-.531.093-.126.133-.156.328-.157.5 0 .172.018.333.032.5.014.168.022.317 0 .406v4.344h4.969c.01 18.292-.037 36.584 0 54.875.148 3.241.288 6.704 1.968 9.625h.032c1.126 1.678 2.817 2.978 4.812 3.469 3.048.885 6.256.875 9.375.625h.031c2.733-.344 5.515-1.4 7.282-3.625 1.58-1.883 2.326-4.353 2.656-6.75.398-3.467.15-6.954.218-10.406v-4.094h-5.812v.156c-.032 4.52.066 9.024-.063 13.531-.065.679-.121 1.424-.312 2.094-.187.655-.515 1.237-1.094 1.594a3.16 3.16 0 0 1-2.031.281c-.675-.14-1.245-.511-1.531-1.156-.81-2.066-.48-4.379-.563-6.625v-53.469h11.157v-5.968H761.78V223.5h-5.468zm.218.313h4.938V243H772.5v5.344h-11.156v53.781c.081 2.204-.288 4.581.562 6.75.333.751 1.03 1.187 1.782 1.344.75.157 1.563.064 2.218-.281v-.032h.032c.691-.407 1.046-1.066 1.25-1.781.203-.715.247-1.485.312-2.156.127-4.466.034-8.946.063-13.406h5.187v3.78c-.068 3.472.175 6.916-.219 10.344-.325 2.362-1.07 4.81-2.593 6.625-1.69 2.128-4.394 3.16-7.063 3.5-.01.002-.021 0-.031 0-3.092.246-6.27.24-9.25-.625h-.032c-1.91-.47-3.54-1.696-4.625-3.312-1.63-2.833-1.757-6.227-1.906-9.469-.036-18.343-.02-36.687-.031-55.031v-.156h-4.969v-3.969c.033-.154.014-.334 0-.5-.015-.176-.031-.327-.031-.469 0-.141.035-.252.063-.281.027-.029.095-.049.28 0h.032c1.85.067 3.892.017 5.438-1.25 1.26-.919 2.128-2.282 2.937-3.625v-.031c2.487-4.521 4.13-9.427 5.781-14.281zM510.375 241.5a13.816 13.816 0 0 0-8.719 3.969 21.534 21.534 0 0 0-3.219 3.875v-7.5h-.156c-6.47.432-12.937.91-19.406 1.344h-.156v5.467h.156c1.266.092 2.526-.199 3.656.188.463.186.737.585.906 1.094.17.508.215 1.107.22 1.625.043 14.665.018 29.333.03 44-.026 4.427.066 8.863-.03 13.28-.023.42-.163.826-.376 1.126-.212.3-.487.497-.906.531h-.031c-1.097.13-2.207.03-3.344.063h-.156v5.468h23.062v-5.467h-.156c-.97-.078-1.946.125-2.75-.25-.254-.409-.338-.887-.344-1.407-.006-.531.041-1.087 0-1.625v-.031c.011-15.436-.007-30.878.031-46.313.091-2.557.129-5.28 1.407-7.5.304-.526.787-1.128 1.25-1.437 1.525-1.065 3.594-1.264 5.344-.656.565.212.98.676 1.28 1.25.3.573.49 1.246.563 1.875.302 2.948.096 5.949.156 8.937-.008 15.217-.002 30.41-.03 45.625h.03a1.858 1.858 0 0 1-.406 1.063c-.222.266-.51.418-.937.437-.682.04-1.391.02-2.094.031h-.156v5.469h21.936v-5.468h-.156c-.53-.043-1.104.026-1.625 0-.506-.026-.928-.13-1.25-.5-.004-.01.004-.022 0-.032-.496-1.165-.227-2.543-.313-3.875v-.031c-.01-17.295.038-34.61 0-51.906-.15-3.019-.607-6.257-2.468-8.781-1.808-2.577-5.02-3.734-8.063-3.907-.933-.1-1.85-.085-2.781-.031zm0 .313c.919-.054 1.84-.067 2.75.03l.031.032c2.974.17 6.082 1.283 7.813 3.75v.031c1.798 2.439 2.226 5.564 2.375 8.563.037 17.305.02 34.631.031 51.937.088 1.285-.259 2.727.313 4.031l.03.032c.398.489.97.628 1.532.656.508.026 1.02-.017 1.469 0v4.844h-21.313v-4.844c.64-.005 1.285.038 1.938 0a1.624 1.624 0 0 0 1.187-.594c.276-.33.436-.74.469-1.219v-.03c.029-15.216-.008-30.441 0-45.657-.06-2.97.149-5.953-.156-8.938a5.892 5.892 0 0 0-.594-2c-.324-.62-.779-1.159-1.438-1.406-1.844-.64-4.035-.413-5.656.719-.539.36-.992.977-1.312 1.531-1.332 2.313-1.41 5.102-1.5 7.656-.04 15.446.01 30.899 0 46.344.042.504-.006 1.058 0 1.625s.073 1.16.406 1.656l.031.032.031.031c.9.458 1.901.214 2.782.25v4.844h-22.438v-4.844c1.063-.019 2.162.066 3.25-.063.51-.041.9-.293 1.156-.656.258-.363.382-.844.407-1.312.097-4.427.004-8.86.031-13.281-.013-14.667.044-29.334 0-44-.004-.536-.063-1.158-.25-1.72-.187-.56-.523-1.05-1.094-1.28-1.19-.407-2.467-.165-3.625-.22V243.5c6.367-.426 12.73-.917 19.094-1.344v8.188l.281-.469c.94-1.556 2.153-2.895 3.469-4.156 2.24-2.241 5.322-3.688 8.5-3.906zm180.813-.313c-4.148.143-8.365 1.342-11.688 3.906-1.54 1.387-3.06 2.973-3.781 5h.031c-1.465 3.549-.684 7.736 1.469 10.813.972 1.253 2.275 2.346 3.906 2.687 2.307.56 4.78-.405 6.344-2.094 1.7-1.625 2.156-4.336 1.125-6.468-.863-1.958-2.541-3.377-4.219-4.563v-.031a21.02 21.02 0 0 0-2.313-1.375c1.526-1.043 3.44-1.435 5.282-1.75h.031c2.113-.15 4.368-.212 6.25.75.755.446 1.321 1.031 1.594 1.906.787 2.58.41 5.374.5 8.094v10.656c-4.686 1.617-9.428 3.22-13.782 5.656-3.133 1.804-5.945 4.323-7.593 7.594-1.803 3.711-2.353 7.848-2.563 11.906-.221 4.929-.125 10.03 1.438 14.782.781 2.196 1.969 4.284 3.781 5.812 2.206 1.977 5.32 2.667 8.219 2.469 3.348-.17 6.62-1.677 8.843-4.188 1.21-1.287 2.221-2.748 3.063-4.312.573 2.388 1.22 4.99 3.281 6.594 1.959 1.666 4.695 1.876 7.125 1.937 2.781-.013 5.94-.507 7.907-2.719 1.616-1.652 2.242-4 2.656-6.187.357-2.256.426-4.542.437-6.813v-.156h-4.969v.156c-.03 2.288.083 4.583-.312 6.813-.103.68-.683 1.183-1.375 1.094h-.031c-.342.055-.57-.085-.75-.313a1.366 1.366 0 0 1-.282-.875c-.196-3.377-.046-6.788-.093-10.187-.014-13.03.018-26.063-.032-39.094-.075-4.194-.859-8.616-3.5-12.031-1.33-1.589-2.97-2.96-4.906-3.781-3.47-1.533-7.366-1.82-11.093-1.688zm0 .313c3.702-.131 7.565.184 10.968 1.687 1.881.799 3.476 2.099 4.782 3.656 2.577 3.334 3.362 7.686 3.437 11.844.05 13.03.017 26.062.031 39.094.048 3.387-.104 6.788.094 10.187-.018.39.076.794.313 1.094.222.282.616.414 1.03.375.027-.002.036.036.063.031.003 0-.003-.031 0-.031a1.533 1.533 0 0 0 1.657-1.313c.394-2.225.289-4.495.312-6.718h4.344c-.014 2.212-.093 4.415-.438 6.594-.41 2.169-1.023 4.457-2.562 6.03h-.032c-1.868 2.102-4.912 2.613-7.656 2.626-2.417-.061-5.05-.296-6.906-1.875-2.047-1.594-2.688-4.272-3.281-6.75l-.094-.438-.219.406a20.017 20.017 0 0 1-3.218 4.563c-2.162 2.441-5.361 3.897-8.625 4.063-2.833.193-5.88-.506-8-2.407-1.754-1.48-2.888-3.525-3.657-5.687-1.543-4.692-1.658-9.71-1.437-14.625.208-4.04.79-8.163 2.562-11.813 1.613-3.2 4.345-5.657 7.438-7.437 4.347-2.433 9.126-4.028 13.843-5.656l.094-.032v-10.937c-.088-2.684.283-5.49-.531-8.156-.297-.954-.915-1.589-1.719-2.063v-.031c-1.986-1.016-4.305-.934-6.437-.781h-.032c-1.946.332-4.04.7-5.687 1.937l-.219.156.25.125c.883.442 1.72.936 2.532 1.5 1.66 1.174 3.3 2.568 4.125 4.438.967 2.001.529 4.603-1.063 6.125h-.031c-1.491 1.61-3.857 2.527-6.032 2-1.53-.321-2.776-1.349-3.718-2.563-2.096-2.995-2.854-7.07-1.438-10.5.693-1.946 2.13-3.5 3.657-4.875 3.257-2.514 7.406-3.703 11.5-3.844zm-41.22-.313c-4.251.262-8.315 2.333-11.124 5.5-2.78 2.858-4.605 6.486-5.969 10.188-2.616 7.314-3.298 15.14-3.344 22.843.097 7.184.497 14.494 2.563 21.438 1 3.247 2.354 6.412 4.437 9.125 1.636 2.011 3.644 3.797 6.032 4.906 3.748 1.801 8.038 2.022 12.093 1.594 3.314-.358 6.831-1.323 9.219-3.813.855-.836 1.503-1.643 2.094-2.719 1.934-3.549 2.341-7.677 2.437-11.625a73.85 73.85 0 0 0-.218-6.03v-.157H662.5v.156c.06 3.831.088 7.711-.625 11.469-.325 1.653-.926 3.36-2.125 4.438-1.825 1.468-4.376 1.295-6.656 1.187-1.615-.127-3.242-.65-4.313-1.875-.467-.596-1.008-1.508-1.281-2.375-1.229-3.6-1.31-7.452-1.531-11.25-.184-5.62-.201-11.25-.188-16.875h23.657v-.156c-.048-7.73-.275-15.562-2.282-23.094v-.031c-.942-2.977-2.087-6.025-4.281-8.344-2.052-2.383-5.033-3.806-8.125-4.25-1.58-.276-3.191-.31-4.781-.25zm0 .313c1.579-.06 3.203-.02 4.75.25 3.025.434 5.913 1.84 7.907 4.156 2.13 2.25 3.282 5.263 4.219 8.219.002.01-.003.02 0 .03 1.973 7.427 2.231 15.18 2.281 22.845h-23.656v.156c-.014 5.678.002 11.352.187 17.031.22 3.79.282 7.713 1.532 11.375.29.924.856 1.816 1.343 2.438 1.146 1.31 2.862 1.9 4.532 2.03h.03c2.276.108 4.9.285 6.845-1.28 1.282-1.153 1.917-2.938 2.25-4.625v-.032c.711-3.748.683-7.562.625-11.344h5.062c.146 1.95.228 3.92.219 5.875-.096 3.93-.513 7.994-2.407 11.47-.576 1.049-1.193 1.836-2.03 2.656h-.032c-2.308 2.406-5.723 3.365-9 3.718-4.022.425-8.235.202-11.906-1.562h-.032c-2.33-1.083-4.292-2.829-5.906-4.813-2.05-2.67-3.382-5.805-4.375-9.031-2.051-6.896-2.466-14.17-2.562-21.344.046-7.685.746-15.455 3.343-22.719 1.356-3.679 3.142-7.283 5.875-10.093h.032c2.754-3.105 6.713-5.15 10.875-5.406zm-102.75-.344c-.705.002-1.433-.02-2.155.062h-.032c-4.127.294-8.259 2.066-10.906 5.313-2.527 2.92-3.694 6.846-3.906 10.656-.171 4.012.101 8.122 1.5 11.938 1.296 3.647 3.615 6.837 6.062 9.75 3.368 4.01 6.93 7.832 10.282 11.843.732 1.045 1.689 2.144 2.375 3.281l.03.032a14.686 14.686 0 0 1 2.595 9.219c-.082 1.823-.303 3.741-1.375 5.218-.593.793-1.699 1.48-2.75 1.719-1.613.426-3.361.42-5 .094a6.544 6.544 0 0 1-3.625-2.313c-.642-.936-1.304-2.108-1.688-3.25-1.378-3.865-1.692-8.003-2.375-12.062v-.063l-.094-.062c-.26-.139-.574-.106-.906-.094-.332.012-.68.028-.938 0h-4.031v23.281h5.063l.031-.125c.295-1.361.721-2.827 1.781-3.719.143-.115.235-.134.344-.125.109.01.253.065.375.157.243.183.476.496.719.719 2.708 2.811 6.647 4.307 10.531 4.343 3.871.056 7.89-.905 10.969-3.375 1.717-1.43 3.2-3.207 4.125-5.281 2.146-4.442 2.25-9.527 1.75-14.313-.445-4.395-2.123-8.593-4.657-12.187-1.78-2.546-3.842-4.85-5.875-7.188-2.459-2.77-5.048-5.414-7.375-8.28-.763-1.068-1.716-2.238-2.437-3.407-1.678-2.633-2.437-5.816-2.313-8.938.012-1.51.338-3.169 1.188-4.312 1.26-1.564 3.564-1.85 5.563-1.688 1.526.06 3.067.495 4.218 1.5.384.254.753.762 1.032 1.22 1.402 2.136 1.692 4.807 2 7.343.233 1.916.505 3.837.718 5.75v.125H564v-21.562h-4.938l-.03.125c-.156 1.213-.078 2.491-.5 3.562-.051.1-.047.094-.063.094a.416.416 0 0 1-.157-.094c-.077-.065-.162-.162-.25-.25a1.505 1.505 0 0 0-.25-.219l-.03-.031c-2.902-2.523-6.66-4.242-10.563-4.406zm0 .312c3.833.161 7.518 1.879 10.376 4.375h.031c.037.02.104.103.188.188.083.084.181.198.28.281a.61.61 0 0 0 .376.156c.148.003.294-.12.375-.281.442-1.122.34-2.364.468-3.5h4.375v20.938h-5.375c-.211-1.876-.459-3.724-.687-5.594-.307-2.533-.574-5.248-2.031-7.469-.288-.473-.662-1.006-1.125-1.313-1.224-1.067-2.83-1.5-4.407-1.562-2.047-.167-4.446.117-5.812 1.813-.914 1.23-1.238 2.946-1.25 4.5-.126 3.18.626 6.399 2.344 9.093.737 1.197 1.715 2.384 2.468 3.438 2.34 2.881 4.923 5.549 7.375 8.312 2.036 2.34 4.078 4.631 5.844 7.156 2.504 3.553 4.187 7.697 4.625 12.032.498 4.758.388 9.796-1.718 14.156-.902 2.02-2.344 3.75-4.032 5.156-3.002 2.41-6.965 3.337-10.781 3.281-3.804-.035-7.673-1.478-10.313-4.218v-.031c-.204-.188-.45-.494-.75-.72a1.067 1.067 0 0 0-.53-.218.816.816 0 0 0-.595.188c-1.124.945-1.546 2.436-1.843 3.78h-4.5v-22.656h3.719c.3.03.627.012.937 0 .295-.01.561.03.719.094.665 4 .96 8.122 2.343 12 .4 1.187 1.099 2.362 1.75 3.313.987 1.227 2.248 2.06 3.782 2.437h.031c1.68.334 3.456.348 5.125-.094 1.132-.256 2.285-.972 2.938-1.843 1.136-1.565 1.355-3.535 1.437-5.375a15.053 15.053 0 0 0-2.656-9.438c-.707-1.173-1.69-2.29-2.407-3.312-3.358-4.02-6.92-7.872-10.28-11.875-2.438-2.9-4.725-6.067-6-9.656-1.379-3.76-1.67-7.825-1.5-11.813.209-3.757 1.376-7.586 3.843-10.438 2.587-3.173 6.627-4.937 10.688-5.218h.03c.701-.084 1.402-.06 2.126-.063zm-86.124-.219c-6.064 0-11.436 3.226-15.281 9.625-3.846 6.4-6.188 15.942-6.188 28.657 0 13.952 2.149 23.277 5.906 29.125 3.758 5.848 9.145 8.219 15.563 8.219 6.094 0 10.737-1.327 13.656-5.032 2.92-3.704 4.088-9.755 3.344-19.187v-.125h-5.532l.032.156c.187 7.919-.388 12.234-1.688 14.531-.65 1.149-1.474 1.78-2.5 2.156-1.026.376-2.27.47-3.719.47-2.122 0-3.716-.26-4.937-1.063-1.22-.803-2.082-2.135-2.688-4.313-1.211-4.354-1.375-12.027-1.375-25.156v-2.094h23.657v-.156c0-13.262-1.268-22.195-4.188-27.844-2.92-5.649-7.522-7.969-14.062-7.969zm0 .313c6.465 0 10.907 2.252 13.781 7.813 2.861 5.536 4.145 14.383 4.156 27.53h-23.656v2.407c0 13.132.14 20.81 1.375 25.25.618 2.22 1.513 3.614 2.813 4.469 1.299.854 2.974 1.156 5.125 1.156 1.46 0 2.725-.102 3.812-.5 1.087-.398 2.006-1.107 2.688-2.313 1.352-2.39 1.892-6.72 1.718-14.53h4.875c.714 9.296-.458 15.23-3.281 18.812-2.84 3.604-7.358 4.906-13.406 4.906-6.341 0-11.609-2.298-15.313-8.063-3.704-5.764-5.843-15.049-5.844-28.968 0-12.676 2.323-22.173 6.125-28.5 3.803-6.328 9.08-9.469 15.032-9.469zm-.781 5.688c-1.698-.034-2.96 1.327-3.407 2.843-1.065 3.328-1.052 6.84-1.312 10.25-.188 3.874-.255 7.75-.313 11.625v.156h10.532v-.156c-.038-5.4.092-10.812-.063-16.219-.158-2.346-.034-4.904-1.219-7.093v-.031c-.448-.733-1.145-1.107-1.906-1.282-.761-.175-1.572-.147-2.313-.094zm0 .312c.729-.052 1.543-.069 2.25.094.706.162 1.321.507 1.718 1.156 1.114 2.081.997 4.604 1.156 6.969.154 5.344.03 10.677.063 16.031h-9.906c.057-3.822.127-7.653.312-11.469.262-3.428.236-6.892 1.281-10.156v-.031c.415-1.408 1.6-2.624 3.125-2.594zm235.906 24.813-.25.156-.063.031-.093.063c-1.57.963-3.25 1.8-4.657 3.03-.89.582-1.702 1.579-2.406 2.407h-.031c-2.107 3.066-2.396 6.911-2.625 10.469-.15 4.562-.275 9.15-.032 13.719.152 1.575.252 3.356 1.157 4.75.763 1.192 2.21 1.463 3.5 1.406h.031c1.487.002 3.013-.566 3.906-1.813 1.291-1.732 1.458-4.041 1.563-6.094.034-9.281-.01-18.562 0-27.843v-.281zm-.313.562c-.009 9.188.003 18.376-.031 27.563-.104 2.048-.252 4.273-1.469 5.906-.825 1.152-2.274 1.697-3.687 1.687-1.24.06-2.568-.216-3.25-1.281-.841-1.295-.91-3.007-1.063-4.594-.243-4.551-.15-9.127 0-13.687.228-3.54.54-7.28 2.563-10.25.009-.011.022-.02.031-.031.7-.824 1.532-1.813 2.344-2.344 1.338-1.17 3.006-2.02 4.562-2.969z" style="fill:#362e2b;stroke:none" transform="translate(-441.033 -252.155) scale(1.24883)"/><path d="m791.813 216.094-.157.031-19.437 1.469-.157.031v5.25h2.625c.781 0 1.337.176 1.72.656.381.48.593 1.311.593 2.656v80.75c0 1.103-.11 1.775-.438 2.157-.326.381-.9.531-1.875.531h-.906v5.125h.157v.156h21.093v-5.281h-1.5c-.792 0-1.226-.09-1.437-.313-.211-.223-.282-.64-.282-1.375V260.5c0-3.026.264-5.7 1.157-7.594.893-1.893 2.382-3.031 5-3.031.943 0 1.675.154 2.218.438.544.283.913.694 1.188 1.28.55 1.173.656 3.026.656 5.563v50.406c0 .905-.22 1.402-.562 1.688-.342.286-.833.375-1.5.375h-1.532v5.281h21.751v-5.281h-1.282c-.852 0-1.362-.117-1.656-.438-.294-.32-.406-.896-.406-1.875v-52.875c0-4.477-.811-7.978-2.75-10.343-1.94-2.365-5.013-3.563-9.438-3.563-5.604 0-9.647 3.221-12.843 8.094v-32.531zm-.313.344v33.217l.313-.469c3.204-5.052 7.208-8.343 12.843-8.343 4.367 0 7.319 1.189 9.188 3.469 1.869 2.28 2.687 5.685 2.687 10.125v52.875c0 1.004.113 1.67.5 2.093.387.423.993.531 1.875.531h.969v4.657H798.75v-4.656h1.219c.696 0 1.284-.074 1.718-.438.435-.364.657-.984.657-1.938v-50.406c0-2.545-.09-4.414-.688-5.687-.298-.637-.706-1.122-1.312-1.438-.606-.316-1.4-.469-2.375-.469-2.712 0-4.349 1.211-5.282 3.188-.932 1.977-1.187 4.706-1.187 7.75v47.438c0 .752.06 1.26.375 1.593.315.334.839.406 1.656.406h1.188v4.657h-20.594v-4.656h.563c1.008 0 1.708-.14 2.125-.625.416-.486.53-1.25.53-2.375v-80.75c0-1.38-.232-2.273-.687-2.844-.454-.572-1.139-.781-1.968-.781h-2.313v-4.625l19.125-1.5zm-102.006 91.004c-3.968 0-4.335-2.605-4.335-11.896 0-16.347 1.114-18.577 9.785-23.411v26.26c0 5.208-.867 9.047-5.45 9.047M454.487 271.15c.368-22.05 1.115-24.404 5.574-24.404 4.955 0 4.456 2.849 4.456 24.404h-10.03zm5.574 44.838c12.14 0 18.333-5.206 16.843-24.031h-5.2c.369 15.853-2.232 17.342-8.051 17.342-8.547 0-9.167-4.463-9.167-30.72v-2.23h23.656c0-26.505-5.08-35.668-18.082-35.668-12.02 0-21.306 12.755-21.306 38.146 0 27.867 8.549 37.16 21.307 37.16zm88.273 0c10.649 0 16.595-7.188 16.595-18.09 0-11.392-3.96-16.343-12.14-25.39-7.8-8.546-10.772-11.765-10.772-18.824 0-4.09 1.362-6.69 6.069-6.69 4.704 0 7.432 1.859 8.296 9.04l.867 6.94h5.45V241.92h-4.458c-.244 2.599-.244 4.084-.991 3.71-1.111-.987-5.446-4.95-11.64-4.95-8.547 0-16.227 5.448-16.227 17.463 0 11.27 3.84 15.729 12.139 25.147 7.185 8.172 10.773 11.764 10.773 18.449 0 5.327-1.483 8.3-7.057 8.3-4.71 0-7.807-2.23-9.29-11.645l-.991-6.438h-5.45v22.793h4.583c.495-2.357 1.734-4.587 2.849-3.844 1.608 1.86 5.325 5.084 11.395 5.084zm101.73 0c12.14 0 18.333-5.206 16.843-24.031h-5.2c.373 15.853-2.228 17.342-8.051 17.342-8.547 0-9.166-4.463-9.166-30.72v-2.23h23.655c0-26.505-5.074-35.668-18.081-35.668-12.016 0-21.306 12.755-21.306 38.146 0 27.867 8.55 37.16 21.306 37.16zm33.237 0c7.309 0 10.9-5.206 12.883-8.922 1.238 5.697 2.845 8.922 10.404 8.922 8.668 0 10.649-5.206 10.649-15.36h-4.455c0 7.309-.252 8.052-1.858 8.052-1.49 0-1.49-.62-1.49-4.711v-45.083c0-14.495-7.8-18.205-18.081-18.205-13.131 0-20.563 9.163-15.607 18.329 2.105 3.838 6.193 4.953 9.658 2.354 3.596-2.723 4.215-8.425-4.951-13.004 1.238-1.117 4.83-2.11 7.308-2.11 7.185 0 7.185 2.606 7.185 9.295v12.63c-17.837 6.074-24.03 9.415-24.03 28.618-.002 14.859 5.695 19.195 12.385 19.195zm-205.238-1.238h22.544v-4.955h-1.366c-1.61 0-1.858-.375-1.858-1.858v-47.44c0-6.07.99-10.777 6.317-10.777 3.84 0 4.215 2.354 4.215 7.432v50.41c0 1.858-.871 2.233-2.233 2.233h-1.362v4.955h21.426v-4.955h-1.111c-1.734 0-2.23-.496-2.23-2.478v-52.89c0-8.92-3.22-13.747-12.011-13.747-5.702 0-10.037 3.343-13.258 8.419v-8.051l-19.196 1.362v4.955h2.478c1.61 0 2.478.745 2.478 3.468v56.109c0 2.233-.5 2.853-2.478 2.853h-2.354v4.955h-.001zm267.829-14.992c0 11.77 1.61 16.23 13.254 16.23 7.553 0 12.632-3.225 12.632-13.997v-10.53h-5.323v11.645c0 4.336-.62 6.07-3.097 6.07-2.478 0-2.973-1.734-2.973-5.574v-56.236h11.145v-5.447h-11.021v-19.201h-5.078c-5.698 17.216-8.3 19.202-13.007 19.202h-1.486v5.323h4.955v52.515h-.001zm-378.38 14.992h19.328v-4.955h-2.973c-2.73 0-3.964-3.225-3.964-7.684v-62.053l15.604 74.564h7.432l15.607-74.811v63.538c0 4.46-.743 6.445-3.221 6.445h-3.468v4.955h27.867v-4.955h-2.106c-2.477 0-3.217-1.985-3.217-6.445v-74.19c0-4.458.74-6.441 3.217-6.441h2.106v-4.955H416.44l-12.14 61.192-12.882-61.192h-23.907v4.955h1.986c2.478 0 3.964 2.973 3.964 7.558v71.836c0 4.459-1.486 7.684-3.964 7.684h-1.986v4.954zm199.65 0h28.115v-4.955h-2.85c-2.604 0-3.343-.871-3.343-5.206v-35.915h18.828v35.915c0 4.335-.871 5.206-3.348 5.206h-2.846v4.955h27.99v-4.955h-2.477c-2.602 0-3.341-.871-3.341-5.206v-76.667c0-4.463.739-5.204 3.34-5.204h2.479v-4.955h-27.991v4.955h2.846c2.477 0 3.348.74 3.348 5.204v34.926h-18.828v-34.926c0-4.463.739-5.204 3.344-5.204h2.849v-4.955h-28.115v4.955h2.598c2.6 0 3.344.74 3.344 5.204v79.145c0 2.109-.743 2.729-3.344 2.729h-2.598v4.954zm151.73 0h22.912v-4.955h-2.973c-1.61 0-2.23-.62-2.23-2.605v-90.912l-19.443 1.484v4.955h2.722c1.614 0 2.233.495 2.233 2.476v82.248c0 1.857-.252 2.354-1.982 2.354h-1.238v4.955h-.001zm55.056 0h20.934v-4.955h-1.366c-1.606 0-1.857-.375-1.857-1.858v-47.44c0-6.07.99-10.777 6.32-10.777 3.837 0 4.208 2.354 4.208 7.432v50.41c0 1.858-.866 2.233-2.23 2.233H798.6v4.955h21.422v-4.955h-1.114c-1.731 0-2.227-.496-2.227-2.478v-52.89c0-8.92-3.221-13.747-12.016-13.747-5.697 0-9.782 3.343-13.006 8.419v-32.821l-19.448 1.484v4.955h2.48c1.607 0 2.479.74 2.479 3.468v80.757c0 2.233-.495 2.853-2.478 2.853h-.743v4.955h-.001zM526.12 244.39c12.383-9.284 14.86-16.222 10.776-22.54-2.23-3.468-7.308-5.696-11.024-2.6-4.463 3.716-3.344 10.278 4.955 13.87-1.49 1.736-4.955 5.204-7.804 7.928l3.097 3.343zm118.368 26.76c.375-22.05 1.115-24.404 5.574-24.404 4.955 0 4.459 2.849 4.459 24.404h-10.033zm-134.083-30.62c-5.595 0-9.885 3.207-13.094 8.063v-7.718l-.187.031-19.188 1.344h-.156v5.281h2.627c.778 0 1.336.177 1.718.656.382.48.625 1.312.625 2.657v56.094c0 1.102-.141 1.774-.469 2.156-.327.381-.902.531-1.875.531h-2.5v5.281h22.875v-5.281h-1.531c-.793 0-1.226-.09-1.438-.313-.21-.223-.28-.64-.28-1.375V260.5c0-3.026.262-5.7 1.156-7.594.893-1.893 2.383-3.031 5-3.031.943 0 1.675.154 2.218.438.544.283.913.694 1.188 1.28.549 1.173.656 3.026.656 5.563v50.406c0 .905-.19 1.402-.531 1.688-.341.286-.865.375-1.531.375h-1.532v5.281h21.75v-5.281h-1.281c-.852 0-1.331-.117-1.625-.438-.294-.32-.438-.896-.438-1.875v-52.875c0-4.477-.81-7.978-2.75-10.343-1.939-2.365-4.981-3.563-9.406-3.563zm0 .313c4.367 0 7.287 1.189 9.156 3.469 1.87 2.28 2.688 5.685 2.688 10.125v52.875c0 1.004.113 1.67.5 2.093.387.423.993.531 1.875.531h.969v4.657h-21.125v-4.656h1.219c.695 0 1.285-.074 1.718-.438.434-.364.657-.984.656-1.938v-50.406c0-2.545-.06-4.414-.656-5.687-.298-.637-.738-1.122-1.344-1.438-.605-.316-1.398-.469-2.375-.469-2.71 0-4.348 1.211-5.28 3.188-.934 1.977-1.188 4.706-1.188 7.75v47.438c0 .752.06 1.26.375 1.593.315.334.839.406 1.656.406h1.188v4.657h-22.22v-4.656h2.188c1.006 0 1.708-.14 2.125-.625.417-.486.531-1.25.531-2.375v-56.094c0-1.379-.232-2.304-.687-2.875-.455-.572-1.14-.75-1.969-.75h-2.312v-4.656l18.875-1.344v8.437l.312-.469c3.203-5.049 7.486-8.343 13.125-8.343zm-50.344-.313c-6.065 0-11.435 3.226-15.28 9.625-3.846 6.4-6.188 15.942-6.188 28.656 0 13.95 2.148 23.278 5.906 29.125 3.758 5.848 9.144 8.22 15.563 8.22 6.092 0 10.737-1.328 13.656-5.032 2.919-3.704 4.09-9.755 3.344-19.188v-.156h-5.532l.031.188c.186 7.918-.387 12.234-1.687 14.531-.65 1.149-1.474 1.78-2.5 2.156-1.026.376-2.271.469-3.719.469-2.123 0-3.717-.26-4.937-1.063-1.22-.802-2.082-2.135-2.688-4.312-1.211-4.355-1.375-12.059-1.375-25.188V276.5h23.656v-.156c0-13.263-1.269-22.195-4.187-27.844-2.918-5.65-7.524-7.969-14.063-7.969zm0 .313c6.465 0 10.91 2.252 13.782 7.812 2.86 5.537 4.145 14.382 4.156 27.531h-23.656v2.376c0 13.13.14 20.81 1.375 25.25.617 2.22 1.513 3.645 2.812 4.5 1.3.854 2.975 1.156 5.125 1.156 1.462 0 2.726-.102 3.813-.5 1.087-.399 2.005-1.108 2.687-2.313 1.35-2.386 1.889-6.744 1.719-14.531h4.875c.716 9.297-.458 15.23-3.281 18.813-2.84 3.603-7.36 4.875-13.406 4.875-6.341 0-11.608-2.268-15.313-8.032s-5.844-15.05-5.844-28.969c0-12.676 2.323-22.172 6.125-28.5 3.803-6.327 9.078-9.468 15.031-9.468zm0 5.75c-1.128 0-2.07.152-2.812.75-.743.597-1.257 1.592-1.656 3.281-.798 3.378-1.064 9.506-1.25 20.531v.156h10.344v-.156c0-10.774.125-16.876-.375-20.312-.249-1.719-.651-2.795-1.343-3.438-.692-.643-1.652-.812-2.906-.812zm0 .312c1.224 0 2.08.186 2.688.75.608.565 1.005 1.531 1.25 3.219.487 3.355.376 9.47.375 20.125h-9.719c.186-10.898.473-16.99 1.25-20.281.391-1.655.9-2.593 1.563-3.125.662-.533 1.493-.688 2.594-.688zm190-.312c-1.128 0-2.07.152-2.812.75-.743.597-1.258 1.623-1.656 3.312-.798 3.379-1.063 9.474-1.25 20.5l-.032.156h10.377v-.156c0-10.776.124-16.875-.375-20.312-.25-1.719-.652-2.795-1.344-3.438-.693-.643-1.652-.812-2.907-.812zm0 .312c1.224 0 2.08.186 2.688.75.608.565 1.005 1.531 1.25 3.219.488 3.356.376 9.468.375 20.125h-9.719c.188-10.9.474-16.99 1.25-20.281.39-1.656.9-2.592 1.563-3.125.662-.533 1.493-.688 2.593-.688zm-121.25-29.187a6.266 6.266 0 0 0-3.03 1.406c-2.273 1.892-3.152 4.543-2.376 7.156.764 2.57 3.104 5.102 7.157 6.906-1.526 1.756-4.866 5.08-7.657 7.75l-.093.094.093.125L526 244.5l.094.094.125-.063c6.202-4.652 9.95-8.742 11.625-12.469 1.675-3.726 1.252-7.117-.813-10.312-1.136-1.765-2.977-3.196-5.031-3.813a7.092 7.092 0 0 0-3.188-.218zm.063.312c1.007-.167 2.045-.077 3.031.219 1.972.592 3.75 1.989 4.844 3.688 2.02 3.125 2.42 6.356.781 10-1.627 3.619-5.3 7.621-11.406 12.218l-2.875-3.125c2.824-2.708 6.21-6.09 7.688-7.812l.156-.156-.188-.094c-4.12-1.784-6.445-4.285-7.187-6.781-.742-2.497.059-4.989 2.25-6.813a6.029 6.029 0 0 1 2.906-1.344zm207.875-1.937-.156.031-19.438 1.469-.156.031v5.25h2.875c.79 0 1.315.113 1.625.438.31.324.469.9.469 1.875v82.25c0 .921-.08 1.483-.313 1.78-.116.15-.287.244-.531.313-.244.07-.574.094-1 .094h-1.405v5.125h.187v.156h23.063v-5.281h-3.125c-.785 0-1.28-.144-1.594-.5-.315-.356-.5-.963-.5-1.938v-91.093zm-.313.344v90.75c0 1.008.166 1.706.563 2.156.397.45 1.018.594 1.844.594h2.812v4.656h-22.593v-4.656h1.062c.441 0 .803-.012 1.094-.094a1.3 1.3 0 0 0 .687-.438c.324-.414.375-1.032.375-1.969v-82.25c0-1.007-.161-1.675-.562-2.093-.401-.419-1.021-.531-1.844-.531h-2.563v-4.625l19.125-1.5zM567 217.594v5.281h2.75c.643 0 1.184.057 1.594.188.41.13.7.344.937.687.473.686.657 1.936.657 4.156v79.156c0 1.034-.165 1.655-.625 2.032-.461.376-1.275.531-2.563.531H567v5.281h28.438v-5.281h-3c-.641 0-1.155-.048-1.563-.188-.408-.14-.732-.367-.969-.718-.473-.704-.656-1.967-.656-4.125v-35.781h18.5v35.78c0 2.158-.23 3.42-.719 4.126a1.802 1.802 0 0 1-.937.719c-.404.14-.921.187-1.532.187h-3v5.281h28.313v-5.281h-2.656c-.642 0-1.154-.048-1.563-.188a1.756 1.756 0 0 1-.937-.718c-.473-.704-.657-1.967-.657-4.125v-76.688c0-2.22.186-3.47.657-4.156.235-.343.528-.557.937-.688.41-.13.92-.187 1.563-.187h2.656v-5.281h-28.313v5.281h3c.612 0 1.128.057 1.532.188.404.13.693.343.937.687.488.688.719 1.938.719 4.156v34.781h-18.5v-34.78c0-2.22.185-3.471.656-4.157a1.7 1.7 0 0 1 .938-.688c.408-.13.952-.187 1.593-.187h3.001v-5.281H567zm.313.344h27.812v4.625h-2.688c-.657 0-1.226.04-1.687.187a2.032 2.032 0 0 0-1.094.813c-.55.799-.718 2.105-.718 4.343V263h19.125v-35.094c0-2.24-.185-3.546-.75-4.344a2.163 2.163 0 0 0-1.125-.812c-.456-.148-.998-.188-1.625-.188h-2.688v-4.625h27.688v4.625h-2.344c-.658 0-1.195.04-1.657.188a2.11 2.11 0 0 0-1.125.813c-.548.799-.718 2.105-.718 4.343v76.688c0 2.176.171 3.498.718 4.312.274.407.664.686 1.125.844.462.158.997.188 1.657.188h2.343v4.656h-27.687v-4.656h2.688c.628 0 1.169-.03 1.625-.188a2.234 2.234 0 0 0 1.125-.844c.563-.812.75-2.134.75-4.312V268.5h-19.126v36.094c0 2.176.172 3.498.72 4.312a2.1 2.1 0 0 0 1.093.844c.462.158 1.03.188 1.688.188h2.687v4.656h-27.813v-4.656h2.438c1.313 0 2.187-.134 2.75-.594.563-.46.781-1.21.781-2.281v-79.157c0-2.238-.199-3.544-.75-4.344a2.032 2.032 0 0 0-1.093-.812c-.463-.147-1.03-.188-1.688-.188h-2.438v-4.625zm-199.97-.344v5.281h2.157c1.175 0 2.117.688 2.781 1.969.664 1.28 1.031 3.162 1.031 5.437v71.844c0 2.212-.365 4.108-1.03 5.438-.666 1.33-1.613 2.062-2.782 2.062h-2.156v5.281H387v-5.281h-3.125c-1.302 0-2.241-.735-2.875-2.063-.634-1.327-.938-3.222-.938-5.437v-60.531l15.282 73.062.031.125h7.688l.03-.125 15.282-73.156v61.844c0 2.22-.18 3.834-.656 4.844-.476 1.01-1.179 1.437-2.375 1.437h-3.657v5.281h28.188v-5.281h-2.25c-1.196 0-1.932-.428-2.406-1.438-.475-1.01-.656-2.622-.656-4.843v-74.188c0-2.22.181-3.803.656-4.812.474-1.01 1.21-1.469 2.406-1.469h2.25v-5.281h-23.562l-.032.125-11.969 60.437-12.75-60.437v-.125h-24.218zm.344.344h23.625l12.844 60.968v.063h.313v-.063l12.094-60.969h23v4.625h-1.938c-1.281 0-2.173.53-2.688 1.625-.514 1.096-.687 2.731-.687 4.97v74.187c0 2.239.173 3.873.688 4.969.514 1.095 1.406 1.625 2.687 1.625h1.938v4.656H412.03v-4.656h3.313c1.281 0 2.14-.53 2.656-1.625.516-1.096.719-2.73.719-4.97v-63.53h-.156l-.157-.032v.031h-.031v.125l-15.563 74.532h-7.187l-15.563-74.406v-.032l-.156.031h-.156v62.063c0 2.244.301 4.165.969 5.563.667 1.397 1.729 2.25 3.156 2.25h2.813v4.656h-19v-4.656h1.812c1.308 0 2.364-.855 3.063-2.25.698-1.396 1.062-3.316 1.062-5.563v-71.844c0-2.31-.363-4.244-1.063-5.594-.7-1.35-1.76-2.125-3.062-2.125h-1.813v-4.625zm387.625 4.625-.03.093c-2.85 8.603-4.916 13.415-6.845 16.031-1.928 2.617-3.67 3.063-6 3.063h-1.656v5.656h4.969v52.344c0 5.89.384 9.984 2.281 12.625 1.898 2.64 5.285 3.781 11.125 3.781 3.801 0 6.996-.84 9.25-3.031 2.254-2.19 3.532-5.713 3.532-11.125v-10.687h-5.657v11.781c0 2.16-.15 3.665-.593 4.594-.443.928-1.142 1.312-2.344 1.312s-1.839-.383-2.25-1.25c-.412-.867-.563-2.241-.563-4.156V247.53h11.157v-5.781h-11.032v-19.186h-5.344zm.25.312h4.782v19.187h11.031v5.157h-11.156v56.375c0 1.929.138 3.353.593 4.312.456.96 1.256 1.406 2.532 1.406s2.139-.448 2.625-1.468c.486-1.02.656-2.575.656-4.75v-11.469h5V302c0 5.361-1.263 8.794-3.438 10.906-2.174 2.113-5.275 2.906-9.03 2.906-5.8 0-9.058-1.095-10.876-3.625-1.817-2.53-2.218-6.562-2.218-12.437v-52.656h-4.969v-5.031h1.343c2.374 0 4.277-.51 6.25-3.188 1.963-2.662 4.048-7.481 6.875-16zm-64.218 17.656c-6.602 0-11.77 2.3-14.688 5.781-2.917 3.483-3.566 8.15-1.062 12.782 1.07 1.951 2.671 3.21 4.437 3.656 1.766.446 3.704.074 5.469-1.25 1.837-1.393 2.932-3.565 2.375-5.969-.545-2.352-2.685-4.888-7.094-7.156.619-.485 1.65-.987 2.907-1.344 1.35-.383 2.844-.625 4.062-.625 1.787 0 3.141.161 4.125.5.984.34 1.601.851 2.031 1.563.86 1.423.875 3.718.875 7.062v12.563c-8.837 3.01-14.863 5.333-18.656 9.344-3.815 4.033-5.375 9.728-5.375 19.343-.001 7.453 1.427 12.299 3.719 15.281 2.292 2.983 5.464 4.094 8.843 4.094 3.692 0 6.45-1.34 8.532-3.125 1.981-1.698 3.296-3.785 4.281-5.594.603 2.679 1.31 4.859 2.781 6.344 1.54 1.555 3.888 2.375 7.688 2.375 4.366 0 7.11-1.35 8.718-3.969 1.609-2.617 2.094-6.473 2.094-11.562v-.156h-4.781v.156c0 3.652-.058 5.657-.313 6.719-.127.53-.292.815-.5.969-.207.153-.485.218-.875.218-.361 0-.612-.058-.78-.156-.17-.098-.29-.253-.376-.563-.173-.618-.187-1.8-.187-3.843v-45.094c0-7.274-1.973-11.88-5.25-14.656-3.278-2.776-7.84-3.688-13-3.688zm0 .313c5.121 0 9.62.92 12.812 3.625 3.193 2.704 5.125 7.19 5.125 14.406v45.094c0 2.044-.012 3.225.188 3.937.1.357.28.605.531.75.25.146.554.188.938.188.413 0 .771-.067 1.062-.281.291-.215.489-.557.625-1.125.266-1.111.31-3.158.313-6.657h4.156c-.012 4.98-.531 8.757-2.063 11.25-1.55 2.523-4.135 3.781-8.437 3.781-3.755 0-6.004-.77-7.469-2.25-1.465-1.48-2.163-3.69-2.781-6.53l-.094-.438-.219.406c-.986 1.85-2.37 4.068-4.406 5.813-2.036 1.744-4.696 3-8.313 3-3.31 0-6.364-1.037-8.593-3.938-2.23-2.901-3.626-7.682-3.625-15.094 0-9.58 1.54-15.168 5.281-19.125 3.742-3.957 9.71-6.31 18.625-9.344l.094-.03V255.53c0-3.344.03-5.67-.907-7.219-.468-.774-1.181-1.33-2.218-1.687-1.037-.358-2.413-.531-4.219-.531-1.26 0-2.781.234-4.156.625-1.375.39-2.59.94-3.25 1.531l-.157.156.188.094c4.557 2.28 6.66 4.82 7.188 7.094.526 2.273-.492 4.322-2.25 5.656-1.7 1.275-3.549 1.61-5.22 1.188-1.67-.422-3.183-1.614-4.218-3.5-2.451-4.535-1.811-9.045 1.031-12.438 2.843-3.393 7.91-5.656 14.438-5.656zm-41.282-.313c-6.062 0-11.434 3.226-15.28 9.625-3.847 6.4-6.188 15.942-6.188 28.656 0 13.95 2.147 23.278 5.906 29.125 3.759 5.848 9.147 8.22 15.563 8.22 6.092 0 10.737-1.328 13.656-5.032 2.919-3.704 4.09-9.755 3.343-19.188v-.156h-5.5v.188c.186 7.918-.387 12.234-1.687 14.531-.65 1.149-1.474 1.78-2.5 2.156-1.026.376-2.27.469-3.719.469-2.123 0-3.717-.26-4.937-1.063-1.22-.802-2.082-2.135-2.688-4.312-1.211-4.355-1.375-12.059-1.375-25.188V276.5h23.657v-.156c0-13.263-1.27-22.195-4.188-27.844-2.917-5.65-7.522-7.969-14.063-7.969zm0 .313c6.466 0 10.91 2.252 13.782 7.812 2.859 5.537 4.145 14.382 4.156 27.531h-23.656v2.376c0 13.13.14 20.81 1.375 25.25.617 2.22 1.513 3.645 2.812 4.5 1.3.854 2.975 1.156 5.125 1.156 1.463 0 2.725-.102 3.813-.5 1.087-.399 2.006-1.108 2.687-2.313 1.35-2.386 1.888-6.744 1.719-14.531h4.875c.716 9.297-.458 15.23-3.281 18.813-2.84 3.603-7.36 4.875-13.407 4.875-6.338 0-11.607-2.268-15.312-8.032s-5.843-15.05-5.844-28.969c0-12.676 2.322-22.172 6.125-28.5 3.804-6.327 9.082-9.468 15.032-9.468zm-104.437-.313c-4.307 0-8.415 1.354-11.438 4.25-3.022 2.897-4.968 7.304-4.968 13.344 0 5.655.959 9.652 2.968 13.375 2.01 3.723 5.07 7.17 9.22 11.875 3.593 4.089 6.278 7.043 8.062 9.781 1.783 2.739 2.656 5.279 2.656 8.594 0 2.649-.374 4.668-1.406 6.031-1.033 1.363-2.71 2.094-5.469 2.094-2.33 0-4.235-.522-5.75-2.219-1.515-1.697-2.667-4.588-3.406-9.281l-.969-6.438-.031-.156h-5.75v23.125h4.875l.031-.125c.245-1.16.664-2.3 1.156-3.031.246-.366.51-.628.75-.75.241-.122.452-.126.688.031 1.647 1.886 5.403 5.125 11.5 5.125 5.36 0 9.557-1.837 12.406-5.031 2.85-3.194 4.344-7.74 4.344-13.219 0-5.716-1.007-9.84-3.032-13.656-2.024-3.816-5.067-7.323-9.156-11.844-3.9-4.273-6.575-7.201-8.281-9.937-1.706-2.736-2.438-5.275-2.438-8.781 0-2.028.325-3.664 1.22-4.782.894-1.117 2.363-1.75 4.687-1.75 2.33 0 4.129.457 5.468 1.781 1.34 1.325 2.227 3.552 2.657 7.125l.875 6.938.031.125h5.75V241.75h-4.781v.156c-.123 1.303-.193 2.308-.313 2.938-.06.315-.147.541-.218.625-.036.041-.064.058-.094.062a.318.318 0 0 1-.125-.031c-.003-.003-.029.003-.032 0-1.12-1-5.442-4.969-11.687-4.969zm0 .313c6.125 0 10.417 3.912 11.531 4.906l.032.031c.112.056.23.078.343.063a.442.442 0 0 0 .282-.156c.146-.172.217-.446.28-.782.123-.643.201-1.623.313-2.844h4.125v20.75h-5.156l-.844-6.812c-.433-3.61-1.334-5.881-2.75-7.281-1.416-1.4-3.315-1.875-5.687-1.875-2.383 0-3.974.67-4.938 1.875-.964 1.204-1.281 2.906-1.281 4.969 0 3.55.738 6.16 2.469 8.937 1.73 2.777 4.444 5.727 8.343 10 4.087 4.518 7.093 8.01 9.094 11.781 2.001 3.77 3 7.82 3 13.5 0 5.421-1.495 9.908-4.281 13.031-2.786 3.124-6.868 4.875-12.156 4.875-6.014 0-9.686-3.163-11.282-5l-.03-.03a.965.965 0 0 0-1-.063c-.32.16-.611.45-.876.844-.507.753-.9 1.89-1.156 3.03h-4.344v-22.468h5.188l.937 6.281c.744 4.723 1.887 7.666 3.469 9.438 1.582 1.771 3.62 2.343 6 2.344 2.816 0 4.648-.764 5.75-2.22 1.102-1.454 1.469-3.54 1.469-6.218 0-3.373-.912-6.007-2.719-8.781-1.807-2.774-4.502-5.695-8.094-9.781-4.15-4.706-7.202-8.167-9.187-11.844-1.985-3.678-2.938-7.6-2.938-13.219 0-5.971 1.92-10.262 4.875-13.094 2.955-2.831 6.98-4.187 11.219-4.187zm149.469 31.031-.219.125c-4.342 2.42-6.837 4.22-8.219 7.469-1.381 3.248-1.656 7.883-1.656 16.062 0 4.647.085 7.644.688 9.5.3.928.746 1.588 1.375 2 .628.413 1.429.563 2.437.563 2.336 0 3.783-1.004 4.594-2.656.81-1.653 1-3.92 1-6.532v-26.531zm-.313.563v25.968c0 2.593-.2 4.839-.968 6.406-.77 1.568-2.066 2.47-4.313 2.47-.974 0-1.693-.166-2.25-.532-.557-.366-.963-.929-1.25-1.813-.574-1.767-.688-4.763-.688-9.406 0-8.172.282-12.776 1.625-15.937 1.312-3.085 3.708-4.831 7.844-7.156z" style="fill:#e2001a;fill-opacity:1;stroke:none;stroke-width:.31900001;stroke-opacity:1" transform="translate(-441.033 -252.155) scale(1.24883)"/></svg>