<svg xmlns="http://www.w3.org/2000/svg" xml:space="preserve" width="1000" height="157.953"><defs><clipPath id="a" clipPathUnits="userSpaceOnUse"><path d="M0 0h595.276v841.89H0V0z"/></clipPath></defs><g clip-path="url(#a)" transform="matrix(7.44128 0 0 -7.44128 -421.365 5526.967)"><path d="M0 0v5.022c0 .212-.101.453-.539.208-.492-.274-2.988-1.579-3.083-1.629-.095-.05-.145-.143-.145-.283v-5.906c0-.372-.098-1.066-.592-1.741-.108-.147-.266-.276-.124-.391.081-.064.215-.061.429.019C-1.666-3.803 0-1.951 0 0" style="fill:#231f20;fill-opacity:1;fill-rule:nonzero;stroke:none" transform="translate(61.82 733.606)"/><path d="M0 0c-.124.076-1.098.573-1.098 1.613v9.147c0 .071-.018.166-.149.24-.13.073-3.306 1.939-3.379 1.973-.109.048-.189.048-.418-.091-.209-.128-2.265-1.415-2.763-1.726h-.226l-2.749 1.52c-.11.064-.216.049-.34-.009-.091-.043-2.921-1.571-3.459-1.86h-.168c-.418.244-2.342 1.365-2.43 1.418-.068.038-.203.098-.339.017-.135-.08-2.518-1.605-2.597-1.665-.068-.051-.149-.142-.124-.246.023-.089.142-.188.28-.288.096-.07 1.647-1.129 1.739-1.192.152-.103.173-.234.173-.366V.571l-.985-.572c-.07-.047-.316-.199-.03-.358.145-.081 2.529-1.322 3.275-1.709a.43.43 0 0 1 .411-.009c.596.335 2.407 1.348 2.471 1.388.116.071.251.211.03.359a54.4 54.4 0 0 1-.626.391V3.67h1.882V.864l-.868-.536c-.061-.036-.216-.214.091-.39.107-.061 2.894-1.534 3.754-1.989a.459.459 0 0 1 .463-.001c.629.392 2.444 1.52 2.477 1.543l.131.135-.123.163c-.061.041-.733.476-1.201.78v3.223l1.698 2.557c.041.058.037.156-.07.156h-1.628v3.876c.514-.262 1.645-.849 1.702-.88a.503.503 0 0 0 .271-.469V.701c0-.562.275-2.04 2.254-2.813.062-.024.252-.03.352.04C-1.772-1.686.02-.411.061-.378.152-.305.233-.145 0 0m-13.775.231c-.182.114-.324.204-.355.225-.089.058-.15.126-.15.294v9.264c0 .202.231.374.505.351V.231zm2.156 6.274h-.166a.299.299 0 0 1-.24-.124l-1.476-2.22v6.117c.301-.157 1.566-.821 1.641-.863.15-.084.241-.175.241-.368V6.505zM-7.171.746l-.173.115c-.075.046-.241.156-.241.357V3.67h.414V.746zm0 5.759h-.414v3.829c0 .143.04.344.414.184V6.505z" style="fill:#231f20;fill-opacity:1;fill-rule:nonzero;stroke:none" transform="translate(164.657 729.421)"/><path d="M0 0h-8.208a.762.762 0 0 1-.452-.159 3492.16 3492.16 0 0 0-3.156-2.411c-.107-.08-.185-.145-.178-.239l.148-.12h7.071v-8.794c-1.831.115-4.135-.372-5.708-2.923-.093-.15-.091-.328.149-.3 1.991.234 5.326.574 7.726-.036.065-.017.227.004.292.103.367.565 1.786 2.495 4.344 3.062.063.014.192.115.192.25v8.907C2.22-1.404 1.941 0 0 0m-1.857-12.263c0-.096-.049-.126-.143-.088a9.146 9.146 0 0 1-2.494.607v3.155c.426.524.875.79 1.333.785.628-.003 1.156-.543 1.304-.708v-3.751zm0 4.165c-.256.245-.717.588-1.3.595-.467.004-.908-.201-1.33-.628v1.853c.378-.481.8-.744 1.258-.774.58-.041 1.086.295 1.372.553v-1.599zm0 2.024c-.137-.155-.702-.726-1.353-.681-.461.032-.889.37-1.275.997v2.829h2.309c.307 0 .319-.019.319-.277v-2.868z" style="fill:#231f20;fill-opacity:1;fill-rule:nonzero;stroke:none" transform="translate(68.687 742.155)"/><path d="M0 0c-.11.081-1.246.84-1.563 1.051l-.081.168V5.62c0 .124.051.187.119.238.098.073.539.434.628.509.088.075.16.268-.089.418-.301.182-3.812 2.035-3.979 2.108a.88.88 0 0 1-.595.015c-.611-.184-3.868-1.281-6.023-4.05-.975-1.253-1.184-2.897-.908-4.12.248-1.097.882-2.48 3.503-2.976.065-.011.254.009.347.085.493.395 2.06 1.653 2.154 1.734.113.097.2.085.299.031a761.4 761.4 0 0 1 3.7-1.793.303.303 0 0 1 .332.023C-1.659-1.771-.051-.519.06-.419.191-.301.184-.137 0 0m-5.978.352L-6.019.25c-.099-.103-.381-.318-.886-.1-.705.303-1.809 1.105-2.307 2.124-.33.674-.644 1.738-.377 2.651.19.653.467 1.212 1.461 1.831l.277.004c.408-.273 1.639-1.096 1.721-1.158a.346.346 0 0 0 .152-.273V.352z" style="fill:#231f20;fill-opacity:1;fill-rule:nonzero;stroke:none" transform="translate(84.108 729.451)"/><path d="M0 0c-.061.036-.954.535-1.214.687-.12.07-.12.212-.12.337V5.63c0 .171.044.229.207.345.104.076.41.296.571.422.121.095.202.217.029.33a285.27 285.27 0 0 1-3.452 1.898c-.257.132-.389.126-.523.044-.133-.082-2.317-1.563-2.481-1.674-.164-.112-.133-.314-.029-.389.103-.075 1.113-.636 1.255-.717.142-.081.179-.151.179-.24V.535s-.285-.217-.538-.416c-.253-.197-.123-.376-.06-.418.054-.038 2.689-1.358 3.388-1.709a.298.298 0 0 1 .312.015C-1.95-1.629-.144-.374 0-.27c.128.095.11.206 0 .27" style="fill:#231f20;fill-opacity:1;fill-rule:nonzero;stroke:none" transform="translate(90.733 729.271)"/><path d="M0 0c.387.26.726.591 1 .967.378.52.634 1.157.357 1.796-.243.566-.992.863-1.564.679-.596-.192-1.096-.755-1.258-1.424-.161-.669.104-1.641.417-2.092C-.827-.389-.505-.337 0 0" style="fill:#231f20;fill-opacity:1;fill-rule:nonzero;stroke:none" transform="translate(87.906 738.613)"/><path d="M0 0c-.063.035-.921.542-1.182.694-.12.069-.12.212-.12.336v11.328c0 .162-.193.238-.448.161-.206-.062-4.278-1.321-4.394-1.376l-.095-.156c0-.093.119-.131.277-.185.253-.084.595-.195.595-1.122V.864a.295.295 0 0 0-.11-.238l-.428-.33c-.253-.198-.123-.376-.059-.42.054-.037 2.639-1.332 3.367-1.697a.349.349 0 0 1 .365.025C-1.703-1.436-.14-.37 0-.269.127-.175.109-.063 0 0" style="fill:#231f20;fill-opacity:1;fill-rule:nonzero;stroke:none" transform="translate(97.353 729.125)"/><path d="M0 0c-.105.059-2.981 1.783-3.12 1.855-.224.115-.377.14-.597 0-.139-.09-1.972-1.407-2.084-1.491a.264.264 0 0 1 0-.436c.144-.104.925-.522 1.008-.572.125-.075.237-.209.237-.466v-6.008s.02-.352-.388-.538c-.38-.173-1.311-.386-2.233.359-.124.101-.158.286-.158.389v5.748s.006.341.241.531l.288.243c.17.159.395.303-.021.561-.101.064-2.819 1.543-2.96 1.614-.223.116-.376.141-.596 0-.14-.088-2.091-1.372-2.203-1.456a.266.266 0 0 1 0-.438c.143-.103.925-.521 1.007-.572.126-.075.238-.208.238-.465v-6.471c0-.228-.091-.312-.135-.357-.591-.576-1.017-1.216-1.176-2.147-.147-.864-.253-2.142 1.395-3.184 1.721-1.09 4.198-.633 5.225-.21 1.029.421 1.834.929 2.763 1.041.93.111 1.348-.582.747-1.339-.635-.796-1.86-.731-1.974-.731-.111 0-.464-.028-.012-.212.992-.403 2.435.091 3.323.958.824.804 1.199 2.761-.31 3.734-1.506.971-3.309.492-4.169.224-.86-.266-2.352-1.013-3.762-1.013-1.408 0-2.811 1.052-1.733 2.348.99 1.187 2.86 1.046 3.635.596.775-.451 1.93-1.198 3.846-1.198 1.916 0 2.921 1.114 2.921 1.76v5.722s.006.302.242.53l.535.53C.171-.409.335-.192 0 0" style="fill:#231f20;fill-opacity:1;fill-rule:nonzero;stroke:none" transform="translate(110.166 736.479)"/><path d="M0 0c-.11.081-1.247.841-1.563 1.051l-.081.168v4.4c0 .123.05.188.118.24.098.074.541.433.628.508.09.074.159.268-.088.418-.302.182-3.813 2.035-3.981 2.107a.873.873 0 0 1-.595.016c-.61-.184-3.866-1.281-6.022-4.049-.975-1.254-1.183-2.897-.907-4.121.248-1.096.882-2.48 3.503-2.973a.537.537 0 0 1 .347.082c.492.395 2.06 1.653 2.155 1.734.111.097.199.085.297.031.085-.049 2.937-1.425 3.699-1.794.12-.056.243-.048.332.023.499.388 2.105 1.64 2.217 1.74C.191-.301.183-.137 0 0m-5.978.353-.041-.104C-6.118.147-6.4-.069-6.907.148c-.704.304-1.809 1.107-2.307 2.128-.329.672-.644 1.736-.377 2.647.193.656.468 1.214 1.462 1.832l.277.004c.408-.272 1.639-1.094 1.721-1.157a.346.346 0 0 0 .153-.273V.353z" style="fill:#231f20;fill-opacity:1;fill-rule:nonzero;stroke:none" transform="translate(177.61 729.59)"/><path d="M0 0c-.06.038-.953.537-1.213.688-.121.069-.121.212-.121.335v4.608c0 .172.043.228.208.346.104.075.409.296.571.422.122.095.202.215.028.328-.122.08-3.174 1.755-3.452 1.899-.256.133-.39.126-.522.044a445.828 445.828 0 0 1-2.48-1.674c-.165-.112-.135-.314-.032-.388a46.937 46.937 0 0 1 1.257-.718c.143-.081.178-.15.178-.238V.774c0-.151-.038-.267-.101-.316l-.436-.337c-.254-.199-.124-.375-.061-.419.056-.038 2.689-1.359 3.389-1.709a.3.3 0 0 1 .311.014C-1.95-1.628-.143-.373 0-.267.128-.174.11-.064 0 0" style="fill:#231f20;fill-opacity:1;fill-rule:nonzero;stroke:none" transform="translate(184.233 729.409)"/><path d="M0 0c.387.259.724.59.998.965.379.521.635 1.155.36 1.797-.244.565-.992.863-1.566.679-.595-.193-1.095-.753-1.257-1.425-.162-.67.103-1.642.418-2.094C-.83-.392-.506-.338 0 0" style="fill:#231f20;fill-opacity:1;fill-rule:nonzero;stroke:none" transform="translate(181.408 738.753)"/><path d="M0 0c-.062.035-.919.542-1.181.693-.119.07-.119.212-.119.336v11.328c0 .164-.192.237-.45.161-.203-.063-4.275-1.32-4.394-1.376l-.092-.156c0-.093.118-.132.273-.183.256-.085.599-.198.599-1.122V.863a.295.295 0 0 0-.113-.237l-.427-.332c-.253-.197-.123-.375-.06-.417.056-.039 2.641-1.334 3.368-1.7a.352.352 0 0 1 .366.025C-1.701-1.437-.14-.371 0-.27c.129.095.111.206 0 .27" style="fill:#231f20;fill-opacity:1;fill-rule:nonzero;stroke:none" transform="translate(190.853 729.265)"/><path d="M0 0c-.21.477-.624.817-1.23 1.009l-.001.003h-.006l-.19.049-.124.035a1.998 1.998 0 0 1-1.232.702l-.26.027-.132.013.057-.108-.145.097-.24.179-.033.026a2.73 2.73 0 0 1 1.155.206c.807.353 1.064 1.017 1.089 1.094l.11.319.055.162-.151-.075-.305-.149a8.543 8.543 0 0 0-.843-.366c.117.16.161.287.162.289l.088.257.045.13-.132-.041-.264-.08a7.518 7.518 0 0 0-.751-.194l.074.189.049.24.026.121-.117-.04-.234-.081c-.282-.097-1.049-.129-1.321-.133-.534.029-1.412-.048-1.42-.048l-.011-.003c-.866-.128-1.283-.503-1.477-.794l-.05-.086c.022.263.011.426.01.432-.149 2.079-1.489 2.264-1.754 2.281-.254.637-1.044.639-1.053.639l-.061-.002-.008-.061c-.027-.192.065-.467.105-.575l-.085-.073c-.255.171-1.535 1.032-2.025 1.184-.214.067-.316.007-.365-.057-.084-.109-.049-.276-.01-.336.126-.206 1.513-1.198 1.858-1.442a8.627 8.627 0 0 0-.759-.79h-.069l-.17-.008c-.158-.051-.307-.342-.307-.345-.04-.08-.011-.251.013-.359-.13-.061-.252-.046-.253-.046l-.13-.026-.078-.132.066-.202c.152-.255.554-.277.672-.277l.376-.386.008-.01.014-.007c.178-.078.297.031.301.034l.003.004.001.003.338.396.469.249.144-.078a1.6 1.6 0 0 1-.624-.717c-.165.029-.439.065-.451.068l-.061.007-.015-.059-.231-.789c-.201-.141-.388-.452-.471-.603l-.322.328-.096.102-.846.88a.775.775 0 0 1-.555.288c-.317.016-.587-.176-.691-.262l-.004.003a.356.356 0 0 1 .159.257.352.352 0 0 1-.164.332l-.042.028.753 2.021c.179.5.023.756-.137.884a.89.89 0 0 1-.506.172c-.09.229-.209.369-.352.408l-.21-.011c-.066.241-.175.397-.329.455-.179.064-.362-.017-.462-.078-.07.198-.168.323-.299.363a.369.369 0 0 1-.255-.016l.004 1.25-1.192.003V7.042c-.151.054-.283.052-.391-.009-.15-.084-.212-.255-.237-.364-.19.091-.352.109-.476.04-.163-.095-.213-.307-.229-.426-.157.035-.287.019-.387-.056-.125-.093-.158-.251-.167-.339-.201-.03-.352-.111-.443-.254-.215-.326-.044-.824-.034-.845-.003.005.361-1.281.413-1.469-.137-.326-1.433-1.992-1.968-2.667l-.424.143.112.023.051.019-.008.056c-.013.105-.031.176-.046.239-.034.132-.055.212.01.552.113.589-.125 1.212-.134 1.237-.181.588-.179.786-.175.824a.602.602 0 0 1 .09.462c-.063.272-.307.46-.399.522.015.212.064.899.007 1.05-.052.131-.128.212-.232.239-.125.032-.254-.027-.331-.075-.065.123-.148.204-.251.23a.372.372 0 0 1-.28-.048c-.103.145-.215.223-.339.224a.414.414 0 0 1-.277-.123l-.222.668-.022.066-.067-.022-.699-.233-.066-.021.021-.067.229-.708c-.131.011-.231-.019-.292-.092-.088-.1-.076-.248-.056-.339-.107-.019-.184-.067-.228-.142-.064-.106-.042-.237-.017-.319a.377.377 0 0 1-.225-.129c-.103-.145-.057-.335-.036-.427l.008-.031c.005-.053.168-.346.482-.872-.149-.473.093-.696.199-.79l.024-.023c-.124-.509.12-1.033.2-1.186l-.064-.079c-.319-.387-.798-.974-1.78-1.2l-3.475-1.049-1.728-.503c-.738-.221-1.654-.388-1.824.07l-.009.019c-.012.035-.055.367.128.734.185.372.529.64 1.018.8.1-.151.453-.565 1.276-.519l.074.004-.008.074-.018.091c.129-.052.183-.087.239-.125l.098-.062.097-.057.009.113c.002.045.019.377-.095.589l4.296.017c.021 0 1.427.15 1.392 1.96-.031 1.498-1.857 1.521-2.734 1.532a3.297 3.297 0 0 0-.381.014l-.211.027c-.246.028-.704.082-.781.123l-.058.033-.035-.056a.46.46 0 0 1-.044-.41c-.349.078-.686.164-.737.2l-.083.059-.026-.098a.748.748 0 0 1 .031-.455c-.323.119-.682.266-.74.327l-.087.092-.033-.122c-.006-.028-.178-.681.572-1.239.76-.567 2.028-.467 2.613-.183.33.158 1.33.648 1.718.395.117-.076.17-.216.163-.429-.036-.995-.696-.974-1.178-.958l-.183.005-3.497-.047c.072.12.146.326.088.653l-.018.103-.087-.056a2.801 2.801 0 0 0-.281-.15l.02.041-.092.017c-.008.003-.846.148-1.349-.712-.116-.036-.723-.242-1.145-.604-.315-.269-.873-.999-.738-1.837.072-.453.301-.637.437-.71-.128-.161-.192-.331-.179-.507.024-.334.298-.56.31-.57l.075-.061.037.091c.221.561.654.751 1.607.99.396.104.775.213.984.274a4.389 4.389 0 0 1-.248-.656c-.058-.191-.114-.368-.169-.432-.247-.279-.51-.147-.733.017l-.023.019-.006.001-.002.003-.249.008c-.284-.139-.44-.78-.483-.986-.387.007-.653-.075-.785-.253a.483.483 0 0 1-.075-.403c-.097-.583-.244-1.563-.139-1.696.365-.461.608-.36.635-.349l.04.02v.044l-.005.385.28-.004c.343-.6.68-.751.725-.766.097-.056.348-.213.412-.309l.069-.098.053.106c.017.034.143.295.092.478l.097.028c.046-.016.176-.169.282-.336l.04-.062.059.042c.223.156.209.447.197.553.149.127.133.397.112.531.274.042.57-.021.681-.051l.017-.443.001-.013.004-.011c.197-.49.718-.561.764-.566.251-.07.613-.123 1.081-.15l.039-.006c.791-.049 1.738-.019 2.56.016 1.445.065 2.789.242 2.897.258.345-.072.571-.054.713-.013l-.028-.061.092-.017c.361-.066.572.096.664.196.159-.171.356-.269.366-.274l.044-.021.036.035.016.017.059-.044.034-.029.04.02a.511.511 0 0 1 .258.375l.177-.066.105.038a.897.897 0 0 1 .325-.232l.051-.022.03.044.051.066a.784.784 0 0 1 .341-.2l.044-.012.029.037c.216.287.22.683.205.879h.003l.031.026.073.126.182-.018c-.173-.1-.274-.21-.213-.402.087-.286.201-.373.557-.416l.091-.052c.023-.048.054-.118.161-.221a.287.287 0 0 1 .314-.06c.157.06.304.232.314.37a1.07 1.07 0 0 1-.027.33l.087-.072c.181-.126.83-.677.835-.682l.045-.035.044.034.69.546c.422-.268.678-.271.775-.271h.01l.006.003.153.085.046.133c.66-.426 1.504-.323 1.543-.319l.022.001.016.015.095.184-.002.009a.816.816 0 0 0 .336-.159c.253-.204.655-.051.672-.047l.053.02-.007.055-.075.146.027.127c.093-.051.162-.14.164-.142.181-.236.475-.172.486-.168l.039.009.013.037v.001c.245-.185.53-.089.545-.087l.014.007.01.011.066.262c1.715-.542 4.268-.469 4.295-.468 3.4.019 3.908.678 3.927.704.141.189.083.38.08.389l-.061.191c.203.045.383.045.47.04.002-.092-.027-.302-.282-.524-.115-.101-.086-.215-.054-.262l.003-.004.003-.002c.633-.692 1.523.072 1.532.079l.031.026-.008.041-.033.192c.118.069.23.203.281.273l.338-.094a2.934 2.934 0 0 0-.114-.422l-.028-.072.077-.021a.678.678 0 0 1 .528.054c.258.152.341.453.344.467l.004.015-.003.014-.312 1.657-.002.009-.003.006c-.14.313-1.051.418-1.361.443.004.172-.005.599-.224.737-.103.066-.233.055-.384-.03-.261-.146-.674-.047-.818-.005.011.071.038.257.043.522.006.259-.065.729-.098.937.397-.096.54-.128.935-.215l.553-.123c.817-.19 1.042-.644 1.078-.735l.1-.251.014-.04.041-.005c.045-.006.045-.006.21.248.142.256.216.475.109.726l-.116.175c.286.173.431.464.448.52l-.003-.008C.141-1.212.252-.571 0 0m-12.176-5.727c-.202.071-.234.169-.234.171-.002.011-.01.063.083.127l.126.068c.035-.148.033-.285.025-.366m7.135.558c-.284-.047-1.533-.238-2.728-.212.242.218.786.674 1.193.773.032.006.344.077.408.276.07.221-.201.534-.437.798l.159.047.259.022c.264.005.796.158.964.208.146-.264.464-.669 1.088-.916-.239-.107-.644-.302-.72-.39a.794.794 0 0 1-.186-.606m-4.74.638-.051-.018a7.84 7.84 0 0 0-.723-.247l-.103-.027.067-.085.26-.328a4.2 4.2 0 0 0-.549.115c-.004.251.052.403.133.606.03.077.064.168.098.268l-.036.24c-.23.327-1.262.378-1.471.383l-.341.319-.054.05-.786.736-.119.111v-.162c0-.211-.107-.543-.213-.782-.076-.164-.15-.308-.186-.38l-.238.056c.058.096.13.215.162.295.215.495.291 1.229.309 1.439.079.004.241-.017.581-.105l.187-.05c.238-.064.494-.143.738-.218.351-.104.649-.195.805-.223l.124-.024c.358-.069.47-.083.524-.043l.033.064c.008.186.051.262.082.288.152-.143.461-.221.708-.263l.149-.021c.547-.069 1.227-.017 1.578.121l.252.1c.298.12.585.236.879.3-.97-.66-1.411-.965-1.315-1.387.039-.174.282-.394.569-.646l.157-.139c-.961-.686-1.275-.447-1.308-.419-.451.352-.837.121-.902.076m-2.921 3.656-.521.03-.128.009-.239.017A4.83 4.83 0 0 1-13.8.465a6.652 6.652 0 0 1-.319.774l.158-.182c.072-.085 1.098-1.252 1.255-1.433a2.46 2.46 0 0 1 .004-.499M-6.334.413C-5.848.371-4.561.382-3.618.388h.123a.87.87 0 0 1-.172-.391l-.053-.303-.026-.15.133.079.262.156.146.075-.039-.055.119-.011.235-.026a1.522 1.522 0 0 1 1.224.499c.058-.017.144-.043.261-.08.345-.111.577-.284.688-.515.236-.488-.124-.972-.185-1.024-.249-.217-.762-.178-.783-.176-1.745.341-4.303.957-4.553 1.017-.078.117-.165.185-.264.2l-.184-.046-.159.052c-.054.118-.129.194-.228.22a.369.369 0 0 1-.271-.05c-.294.101-1.172.559-1.433.699.454.52.711 1.074.855 1.552.031-.495.187-.896.472-1.193A1.691 1.691 0 0 1-6.334.413m-14.697-.975a5.586 5.586 0 0 1-.038-1.02l-.452.276c.003 0-.162.117-.306.218.196-.004.433.007.513.087.022.021.16.231.283.439m-1.351-2.269a1.095 1.095 0 0 1-.575.201l-.033.001-.022-.023-.033-.052c-.212.126-.523.142-.539.142l-.037.003-.021-.032-.034-.201c-.249.02-.488-.005-.499-.005l-.062-.007v-.061c0-.178.054-.385.142-.538l.005-.005.003-.003.065-.079-.165-.042-.061-.171.073-.209-.09.053a.57.57 0 0 1-.49.022c-.289.089-.526.085-.703-.018a.549.549 0 0 1-.243-.3.808.808 0 0 1-.303-.162l-.112-.102a3.282 3.282 0 0 0-.496.108 2.994 2.994 0 0 0-.466.196l.237.355c.517-.029 1.063.497 1.087.52l.122.122h-.173c-.568 0-.98.415-1.186.683a6.4 6.4 0 0 1 .854-.357c1.517-.452 2.241.189 2.417.383.466-.318.732-.167.742-.161.137.093.278.168.321.176.461-.329 1.267-.602 1.608-.708a.705.705 0 0 1-.194-.279c-.18.105-.386.054-.498.009-.095.512-.568.573-.574.574l-.049.006-.018-.039zm-1.315-2.085-.046.258.003.056-.004.172-.063.156.054-.02c.112-.036.112-.036.083-.156l-.004-.017.004-.016c.04-.152.23-.289.384-.383l-.411-.05zm-5.721.18v.013l-.002.01c-.155.5-.868.645-1.106.679.019.092.052.245.08.331.049.149.18.351.243.442.364-.164 1.267-.326 1.597-.381-.119-.118-.293-.203-.451-.276l-.174-.086c-.268-.145-.146-.625-.13-.679v-.005l.001-.004c.077-.19.246-.248.424-.311l.074-.026.062-.021c.122-.043.496-.122.852-.193-1.071.007-1.466.034-1.611.053.129.239.141.445.141.454m25.804 6.683.013-.301a.865.865 0 0 1 .163-.47l-2.829.033c-.865.126-.849.94-.832 1.123.04.143.117.243.236.307.403.213 1.121-.036 1.126-.038.79-.353 1.495-.538 2.119-.564l.004-.09zm-11.238 3.95z" style="fill:#231f20;fill-opacity:1;fill-rule:nonzero;stroke:none" transform="translate(145.06 734.404)"/><path d="m0 0 .006-.005.006-.005L0 0z" style="fill:#231f20;fill-opacity:1;fill-rule:nonzero;stroke:none" transform="translate(130.173 737.202)"/><path d="m0 0-.103-.066-.043.049.06.115.122.236H-.45l.121-.236.06-.115-.045-.049L-.416 0l-.209.136V-.41l.209.137.102.067.045-.05-.06-.116-.121-.235h.486l-.122.235-.06.116.043.05L0-.273.21-.41v.546L0 0z" style="fill:#fff;fill-opacity:1;fill-rule:nonzero;stroke:none" transform="translate(127.954 742.15)"/><path d="M0 0c-.189-.039-.303-.265-.262-.509.197.116.414.212.649.289C.3-.063.148.031 0 0" style="fill:#fff;fill-opacity:1;fill-rule:nonzero;stroke:none" transform="translate(126.286 740.971)"/><path d="M0 0c-.052.256-.241.431-.418.393C-.596.359-.696.122-.644-.132l.006-.021c.202.061.418.108.641.135L0 0" style="fill:#fff;fill-opacity:1;fill-rule:nonzero;stroke:none" transform="translate(127.356 740.918)"/><path d="M0 0c-.013.259-.169.463-.349.454C-.505.447-.626.291-.652.084-.426.064-.208.021 0-.037V0z" style="fill:#fff;fill-opacity:1;fill-rule:nonzero;stroke:none" transform="translate(128.861 740.823)"/><path d="M0 0c-.011.259-.167.461-.351.454-.117-.006-.216-.1-.268-.235C-.397.151-.191.064 0-.039V0" style="fill:#fff;fill-opacity:1;fill-rule:nonzero;stroke:none" transform="translate(129.537 740.551)"/><path d="M0 0c.233 0 .424.19.429.422H-.43A.432.432 0 0 1 0 0" style="fill:#fff;fill-opacity:1;fill-rule:nonzero;stroke:none" transform="translate(127.769 740.812)"/><path d="m0 0-.379.388-.018-.164-.071-.123.035-.326.178-.041a.5.5 0 0 0 .166-.123C.069-.246 0 0 0 0" style="fill:#fff;fill-opacity:1;fill-rule:nonzero;stroke:none" transform="translate(125.122 729.84)"/><path d="M0 0c-.326-1.218-.082-1.937-.082-1.937l-.267-.005v1.35c-.477.141-.272.366-.272.366C-.396.061 0 0 0 0" style="fill:#fff;fill-opacity:1;fill-rule:nonzero;stroke:none" transform="translate(111.483 730.432)"/><path d="M0 0c.12-.184.038-.421.038-.421-.053.183-.3.227-.3.227C-.136.162 0 0 0 0" style="fill:#fff;fill-opacity:1;fill-rule:nonzero;stroke:none" transform="translate(112.599 727.894)"/><path d="M0 0c.114.117.141.236.141.236.244-.143.1-.493.1-.493C.188-.073 0 0 0 0" style="fill:#fff;fill-opacity:1;fill-rule:nonzero;stroke:none" transform="translate(113.036 727.93)"/><path d="M0 0c.388-.024.418-.332.418-.332.189-.164.172.081.172.081C.384.424 0 0 0 0" style="fill:#fff;fill-opacity:1;fill-rule:nonzero;stroke:none" transform="translate(112.775 728.925)"/><path d="M0 0c.12-.04.179.064.179.064a.559.559 0 0 0-.024-.431c-.035.184-.156.184-.156.184L0 0z" style="fill:#fff;fill-opacity:1;fill-rule:nonzero;stroke:none" transform="translate(113.245 728.45)"/><path d="M0 0c.38-.06.687.699.687.699.6.024.882-.274.882-.274.263-.258-.082-.229-.082-.229C1.107.228.482.079.482.079L.431-.105C.482-.25.5-.76.5-.76c-.311.083-.741.028-.741.028-.307.818-.86.318-.86.318A1.14 1.14 0 0 0-1.038.589c.07.019.511.077.861 0C.121.525-.13.036-.13.036L0 0z" style="fill:#fff;fill-opacity:1;fill-rule:nonzero;stroke:none" transform="translate(113.759 729.436)"/><path d="M0 0c.251-.493 3.082-.356 4.244-.303.888.04.886.046 3.533.361-.107-.572-.031-1.244-.031-1.244.054-.309-.463-.394-.463-.394C3.171-2.302.934-1.778.934-1.778c-.742.078-.863.49-.857.62C.1-.722 0 0 0 0" style="fill:#fff;fill-opacity:1;fill-rule:nonzero;stroke:none" transform="translate(114.403 729.35)"/><path d="M0 0c.312.448.745.142.745.142.101-.059.207-.285.207-.285C.762-.143.7-.304.7-.304.527.02 0 0 0 0" style="fill:#fff;fill-opacity:1;fill-rule:nonzero;stroke:none" transform="translate(119.528 730.233)"/><path d="M0 0c-.05.202.104.314.104.314C.225.233.293.035.293.035L0 0" style="fill:#fff;fill-opacity:1;fill-rule:nonzero;stroke:none" transform="translate(120.126 729.32)"/><path d="M0 0c.208-.102.26-.399.26-.399l.194.026C.505-.004.259.211.259.211.053.19 0 0 0 0" style="fill:#fff;fill-opacity:1;fill-rule:nonzero;stroke:none" transform="translate(120.298 729.771)"/><path d="M0 0c.119-.063.224-.344.224-.344C.379-.445.44-.711.44-.711c.121.082.32.061.32.061C.657.024 0 0 0 0" style="fill:#fff;fill-opacity:1;fill-rule:nonzero;stroke:none" transform="translate(120.419 730.449)"/><path d="m0 0 .019-.241.281.046C.318-.051.235.059.235.059.08.102 0 0 0 0" style="fill:#fff;fill-opacity:1;fill-rule:nonzero;stroke:none" transform="translate(120.91 729.657)"/><path d="M0 0v-.225C-.138 0-.588.143-.588.143c-.05-.1.018-.368.018-.368-.225.43-.709.45-.709.45 0-.182.121-.304.121-.304-.223.161-.673.099-.673.099.068-.428.43-.734.43-.734l-.033-.103c-.277.183-.35.04-.35.04l.004-.081c.139-.246.693-.448.693-.448a.396.396 0 0 1-.21-.187c.191-.386.797-.365.797-.365-.116.359-.033.675.018.817v-.002l-1.142.921s.895-.616 1.23-.782c.243.233.584.172.584.172l.159.187C.313-.24 0 0 0 0" style="fill:#fff;fill-opacity:1;fill-rule:nonzero;stroke:none" transform="translate(122.856 731.433)"/><path d="M0 0c-.173.305-.051.529-.051.529.137.452.568.388.568.388.148-.039.208.064.208.064.282.386.455.144.455.144.082-.132.356-.16.356-.16.277-.058.123-.372.123-.372-.102-.176.051-.227.051-.227.567-.06.087-.963.087-.963-.093-.147-.328-.079-.328-.079L1.4-.737c.121-.204 0-.306 0-.306-.209-.225-.485-.185-.485-.185-.379 0-.398.185-.398.185-.051.182-.276.182-.276.182-.311.084-.347.409-.347.409a.284.284 0 0 0 .089.245C.102-.122 0 0 0 0" style="fill:#fff;fill-opacity:1;fill-rule:nonzero;stroke:none" transform="translate(122.529 729.657)"/><path d="M0 0c-.292.279-.388-.038-.329-.134.022-.033.179-.121-.059-.179-.236-.057-.174-.329.07-.347.244-.022.436.095.463.191A.467.467 0 0 1 0 0" style="fill:#231f20;fill-opacity:1;fill-rule:nonzero;stroke:none" transform="translate(123.1 730.316)"/><path d="M0 0c.276.327-.066.406-.16.34C-.196.315-.276.145-.354.387-.43.634-.71.55-.714.293c-.006-.257.129-.452.233-.476A.49.49 0 0 1 0 0" style="fill:#231f20;fill-opacity:1;fill-rule:nonzero;stroke:none" transform="translate(124.03 730.155)"/><path d="M0 0c.327-.179.334.128.26.196C.233.223.073.262.269.37.465.48.345.705.121.665-.099.622-.241.473-.243.38A.427.427 0 0 1 0 0" style="fill:#231f20;fill-opacity:1;fill-rule:nonzero;stroke:none" transform="translate(123.925 729.21)"/><path d="M0 0c-.132-.353.174-.315.231-.231.022.032.038.195.175.016.134-.178.34-.027.268.186C.603.185.435.305.342.293A.428.428 0 0 1 0 0" style="fill:#231f20;fill-opacity:1;fill-rule:nonzero;stroke:none" transform="translate(123.164 728.947)"/><path d="M0 0c-.339-.05-.176-.278-.083-.288.036-.003.173.056.091-.133-.083-.187.129-.285.268-.135.139.154.161.344.112.41A.388.388 0 0 1 0 0" style="fill:#231f20;fill-opacity:1;fill-rule:nonzero;stroke:none" transform="translate(122.817 729.523)"/><path d="M0 0s.063.258.175.288c.107.029.138-.02.138-.02.034-.348.261-.594.261-.594l-.036-.49c-.052.183-.242.183-.242.183C.433-.203 0 0 0 0" style="fill:#fff;fill-opacity:1;fill-rule:nonzero;stroke:none" transform="translate(124.03 730.799)"/><path d="m0 0-.174.019-.413-.488C-.622-.737-.951-.86-.951-.86c.656.064.745.307.745.307C-.26-.758-.347-.92-.347-.92.29-.711 0 0 0 0" style="fill:#fff;fill-opacity:1;fill-rule:nonzero;stroke:none" transform="translate(122.943 728.513)"/><path d="M0 0c.26-.061.415-.041.415-.041C.762-.346.399-.817.399-.817c-.104.224-.104.592-.104.592C.14-.427.243-.775.243-.775c-.294.121-.363.429-.363.429C-.12-.144 0 0 0 0" style="fill:#fff;fill-opacity:1;fill-rule:nonzero;stroke:none" transform="translate(123.236 728.328)"/><path d="m0 0 .19.021s-.241.329-.5.23c0 0-.013-.354-.207-.579.089-.104.435-.531.445-.816 0 0-.302.491-.601.691L-.742-.49s.015-.368-.349-.449c0 0 .071-.205.175-.225l.087-.225s.153-.123.171.184c0 0 .105-.327.33-.388 0 0 .103.081.052.325 0 0 .051-.347.363-.468 0 0 .292.674 0 1.02 0 0 .067-.081.226-.081C.313-.797.4-.183 0 0" style="fill:#fff;fill-opacity:1;fill-rule:nonzero;stroke:none" transform="translate(124.897 729.267)"/><path d="M0 0a.44.44 0 0 1 .226.163C.31-.081.141-.367.141-.367.156-.166-.007-.001 0 0" style="fill:#fff;fill-opacity:1;fill-rule:nonzero;stroke:none" transform="translate(125.987 731.168)"/><path d="M0 0c.157.053.173.209.173.209.156-.204.105-.546.105-.546A1.597 1.597 0 0 1 0 0" style="fill:#fff;fill-opacity:1;fill-rule:nonzero;stroke:none" transform="translate(125.604 730.89)"/><path d="m0 0-.003-.456c-.398-.836-.142-1.923-.142-1.923-.14-.057-.212-.128-.212-.128C-.702-.888 0 0 0 0" style="fill:#fff;fill-opacity:1;fill-rule:nonzero;stroke:none" transform="translate(125.434 734.805)"/><path d="m0 0 .449.338v1.247l.348.223V.219L0-.415l-.796.634-.002 1.666.347-.233V.338L-.001 0H0z" style="fill:#fff;fill-opacity:1;fill-rule:nonzero;stroke:none" transform="translate(127.749 727.842)"/><path d="m0 0 .109.162L0 .32-.11.162 0 0z" style="fill:#fff;fill-opacity:1;fill-rule:nonzero;stroke:none" transform="translate(127.741 728.974)"/><path d="m0 0 .109.161L0 .318-.11.161 0 0z" style="fill:#fff;fill-opacity:1;fill-rule:nonzero;stroke:none" transform="translate(127.741 728.233)"/><path d="m0 0 .121.159L0 .319l-.123-.16L0 0z" style="fill:#fff;fill-opacity:1;fill-rule:nonzero;stroke:none" transform="translate(127.543 728.608)"/><path d="m0 0 .121.159L0 .319l-.124-.16L0 0z" style="fill:#fff;fill-opacity:1;fill-rule:nonzero;stroke:none" transform="translate(127.954 728.608)"/><path d="M0 0c.085-.408-.33-.33-.33-.33-.155-.284.069-.284.069-.284.325-.065.502.101.469.305A.505.505 0 0 1 0 0" style="fill:#fff;fill-opacity:1;fill-rule:nonzero;stroke:none" transform="translate(126.23 730.141)"/><path d="M0 0c-.065.232.076.271.076.271.141-.38.534-.696.534-.696C.645-.61.426-.621.426-.621.099-.356 0 0 0 0" style="fill:#fff;fill-opacity:1;fill-rule:nonzero;stroke:none" transform="translate(125.46 730.567)"/><path d="m0 0 .101.217.098-.101.078.07A.827.827 0 0 1 .41-.033C.257-.074.194-.208.194-.208A.632.632 0 0 0 0 0" style="fill:#fff;fill-opacity:1;fill-rule:nonzero;stroke:none" transform="translate(125.947 730.485)"/><path d="m0 0 .118-.126-.355-.602s-.113.07-.14.166L0 0" style="fill:#fff;fill-opacity:1;fill-rule:nonzero;stroke:none" transform="translate(129.333 730.38)"/><path d="m0 0-.361-.606c.587-.388.945.595.945.595C.25-.095 0 0 0 0" style="fill:#fff;fill-opacity:1;fill-rule:nonzero;stroke:none" transform="translate(129.57 730.177)"/><path d="M0 0v-.519c.243-.388.294-1.238.294-1.238s.004.045.115.132l.105.072C.497-.695 0 0 0 0" style="fill:#fff;fill-opacity:1;fill-rule:nonzero;stroke:none" transform="translate(129.961 735.007)"/><path d="M0 0c.347-.511 1.452-.511 1.452-.511-.105.287-.432.41-.432.41.485.202.932-.246.932-.246.261-.245.571-.245.571-.245a2.632 2.632 0 0 1-.258.265c.155-.062.292-.02.292-.02-.172.285-.656.573-.656.573.519.263.952-.348.952-.348.224-.328.433-.389.433-.389l-.158.472c.158-.431.726-.553.726-.553l.056.173c-.469.151-.422.304-.422.304l-.034.481c-.537.083-.464.37-.464.37a.59.59 0 0 0 .468.491l-.053.571c.312.231.933.114.933.114-.068.348-.33.234-.33.234 0 .286-.287.259-.287.259L2.84 1.65c.138-.696-.23-.872-.23-.872C2.005.388 1.555.94 1.555.94L1.162.687c.229-.005.614-.308.602-.299C1.537.55.959.56.959.56L0 0z" style="fill:#fff;fill-opacity:1;fill-rule:nonzero;stroke:none" transform="translate(129.443 728.082)"/><path d="M0 0c.088-.9.916-1.082.916-1.082.536-.062.536.365.536.365C1.452.408.329.429.329.429-.104.388 0 0 0 0" style="fill:#fff;fill-opacity:1;fill-rule:nonzero;stroke:none" transform="translate(130.635 730.044)"/><path d="M0 0c.604.151.033.436.033.436-.517.206-.632.165-.632.165a.615.615 0 0 0 .27-.224C-.052.357 0 0 0 0" style="fill:#fff;fill-opacity:1;fill-rule:nonzero;stroke:none" transform="translate(133.963 729.973)"/><path d="m0 0 .147.574C-.182.449-.395.527-.395.527-.758.589-.896.488-.896.488-1.291.241.003 0 0 0" style="fill:#fff;fill-opacity:1;fill-rule:nonzero;stroke:none" transform="translate(133.986 729.332)"/><path d="m0 0 .113-.133.589.065L.347-.31l.589-.066-.267.608L0 0z" style="fill:#fff;fill-opacity:1;fill-rule:nonzero;stroke:none" transform="translate(134.664 729.45)"/><path d="M0 0c.172-.222.693-.166.693-.166C.791-.058.719.2.719.2.668.367.708.448.708.448 1.064.449.796-.02.796-.02c.534.348.017 1.097.017 1.097.253 1.432 1.141 1.158 1.224 1.15.365-.03 1.265-.325 1.265-.325.328-.103 1.416-.324 1.452-.307.034.017-.037.119.08.199.452.306.558 1.294.558 1.294 0 .162.069.082.069.082.127-.598-.284-1.273-.284-1.273.352-.401 1.656-.328 1.656-.328.639.084 1.26.373 1.26.373.757.3 1.525.241 1.525.241l-.041.168c-.606.264-.192.592-.192.592l-.147.278c-1.257.33-2.808 1.193-2.808 1.193-1.781.96-2.697.798-2.697.798-.777-.818-.64-2.167-.64-2.167l.432-.038c-.034.938.553 1.429.553 1.429.156.06.035-.123.035-.123-.622-.919-.364-1.554-.364-1.554-.276.122-1.9.204-1.9.204-.971.106-1.193-.774-1.193-.774l-.31-1.104C.018.409 0 0 0 0" style="fill:#fff;fill-opacity:1;fill-rule:nonzero;stroke:none" transform="translate(129.474 730.45)"/><path d="M0 0c.057.388.198.776.198.776l-1.082 1.16c-.548.647-.86.397-.86.397l-.218-.109c.245-.181.415-.47.415-.47l.214-.167L0 0z" style="fill:#fff;fill-opacity:1;fill-rule:nonzero;stroke:none" transform="translate(132.398 734.287)"/><path d="M0 0c-.019.396-.183.464-.183.464-.438.306-.496.229-.496.229-.108-.108.212-.329.212-.329L0 0z" style="fill:#fff;fill-opacity:1;fill-rule:nonzero;stroke:none" transform="translate(132.939 740.331)"/><path d="M0 0c.059.337-.268.607-.268.607l-.319.199c.159-.145.152-.473.152-.473L0 0z" style="fill:#fff;fill-opacity:1;fill-rule:nonzero;stroke:none" transform="translate(133.487 739.923)"/><path d="m0 0 .373-.274C.377.114.247.293.247.293l-.418.268C.076.345 0 0 0 0" style="fill:#fff;fill-opacity:1;fill-rule:nonzero;stroke:none" transform="translate(133.6 739.843)"/><path d="M0 0c-.257-.099-.354-.016-.345-.059.051-.257.458-.248.458-.248.172 0 .328.172.328.172v.094C.273-.19.149-.138.129-.135L0 0" style="fill:#fff;fill-opacity:1;fill-rule:nonzero;stroke:none" transform="translate(132.753 737.645)"/><path d="m0 0-.285.311s.326.198.19.429C-.164.855-.348.691-.399.694c-.141.009-.192.345-.168.425l.181.233.262.02L.998 2.584c.204.464.515.402.515.402-.121.144-.225.532-.225.532.623 0 .708-.633.708-.633 1.886-1.492.694-3.911.694-3.911-.613.422-1.911.694-1.911.694.21.431.757.742.757.742.73.015.599.9.599.9-.072.126-.115-.025-.115-.025C1.927-.13.803 1.004.803 1.004.701 1.088.719.932.719.932.772.81.972.676.972.676L.455.416.096.025 0 0" style="fill:#fff;fill-opacity:1;fill-rule:nonzero;stroke:none" transform="translate(133.392 736.926)"/><path d="m0 0 .358-.235C.319-.418.109-.579.109-.579.172-.294 0 0 0 0" style="fill:#fff;fill-opacity:1;fill-rule:nonzero;stroke:none" transform="translate(134.018 740.038)"/><path d="M0 0c.615.062 1.141-.727 1.135-.724-.316.291-.572.218-.572.218C.373-.281 0 0 0 0" style="fill:#fff;fill-opacity:1;fill-rule:nonzero;stroke:none" transform="translate(135.586 739.827)"/><path d="M0 0c.137-.203.252-.569.252-.569.492-.118.672-.492.672-.492C.622.102 0 0 0 0" style="fill:#fff;fill-opacity:1;fill-rule:nonzero;stroke:none" transform="translate(136.202 739.176)"/><path d="M0 0c.776-.217.587-1.25.587-1.25a.775.775 0 0 1-.442.397C.115-.184 0 0 0 0" style="fill:#fff;fill-opacity:1;fill-rule:nonzero;stroke:none" transform="translate(136.53 738.385)"/><path d="M0 0c.02-.183-.058-.488-.058-.488.291-.243.248-.53.248-.53.107.184.183.599.183.599C.303-.134 0 0 0 0" style="fill:#fff;fill-opacity:1;fill-rule:nonzero;stroke:none" transform="translate(136.674 737.357)"/><path d="M0 0c-.033-.269-.352-.875-.352-.875l.3-.206C.333-.492 0 0 0 0" style="fill:#fff;fill-opacity:1;fill-rule:nonzero;stroke:none" transform="translate(136.583 736.688)"/><path d="M0 0c.739.208 1.209-.28 1.209-.28.181-.352.212-.787.212-.787C.947-1.318.082-1.34.082-1.34c-.415-.103-.12-.329-.12-.329.699-.656.137-.776.137-.776-.658-.122-1.403-.923-1.403-.923-.521-.042-1.264.012-1.264.012-.207.145-.339.637-.339.637.275.245.516-.03.516-.03.555-.364 1.432.309 1.432.309.114.079.315.145.315.145l-.04.173c-.379.243-.65.574-.65.574-.208.327-.019.491-.019.491C-1.06-.762 0 0 0 0" style="fill:#fff;fill-opacity:1;fill-rule:nonzero;stroke:none" transform="translate(138.401 732.406)"/><path d="M0 0c.096-.614.067-.974.075-1.485.005-.268 1.984-.696 3.938-.696 5.014 0 4.569.919 4.559.941-.224.504-.337 1.138-.337 1.138s-.814-.492-4.224-.492C.814-.594 0 0 0 0" style="fill:#fff;fill-opacity:1;fill-rule:nonzero;stroke:none" transform="translate(133.015 729.484)"/><path d="m0 0-.26.83c-.172.288-.448.103-.448.103-.224-.165-.503-.072-.503-.072-.293.04-.035.235-.035.235.398.266.78.367.78.367.293-.122.83-.082.83-.082.482.062.38-.326.38-.326C.76.685.646.039.646.039A3.305 3.305 0 0 1 0 0" style="fill:#fff;fill-opacity:1;fill-rule:nonzero;stroke:none" transform="translate(141.664 728.642)"/><path d="m0 0-.071.043-.054.083s-.041-.373-.324-.625l.037-.076.092-.065L0 0z" style="fill:#fff;fill-opacity:1;fill-rule:nonzero;stroke:none" transform="translate(142.518 728.334)"/><path d="m0 0-.303-.644c.553-.083.957.272.957.272L.569.036C.307-.087 0 0 0 0" style="fill:#fff;fill-opacity:1;fill-rule:nonzero;stroke:none" transform="translate(142.618 728.292)"/><path d="m0 0 .362-.101C.446.417.265.919.265.919.68.776.696.938.696.938c.179.64-1.287.679-1.287.679 0-.198.078-.635.078-.635C.177.754 0 0 0 0" style="fill:#fff;fill-opacity:1;fill-rule:nonzero;stroke:none" transform="translate(143.7 728.513)"/><path d="m0 0-.01.033-.006-.034a1.695 1.695 0 0 1 .03-.645s-.192-.022-.286.094c0 0 .049-.342-.194-.827-.243-.488-.237-.463-.269-.577 0 0-.122.161-.72.419-.156.066-.443.315-.519.495 0 0-.077-.093-.251-.159 0 0-.047.272-.221.512-.197.27-.227.232-.237.331-.012.1 0 .251 0 .251.023-.13.117-.26.306-.47.186-.211.214-.48.214-.48.162.067.186.239.186.239.042-.121.338-.474.522-.565.553-.274.655-.361.655-.361.031.122.025.048.264.543.213.446.141.906.141.906.125-.211.311-.249.311-.249-.025.205-.064.341-.025.536.021.098.039.164.048.22-.05.168-.115.389-.134.506-.045.289-.132.475-.05.58.198.249.006.616-.254.636-1.035.075-2.342-.731-2.489-.986-.253-.437.272-.587.229-.696-.17-.435-.051-.75.179-1.136.23-.387.251-.915.251-.915.194.116.255.381.255.381.147-.843.751-.991.751-.991.256-.071.369-.299.369-.299.077.242.093.398.093.398.074-.331.32-.366.32-.366.044.307.147.539.147.539.223.462.117.809.117.809.099-.186.321-.234.321-.234-.124.432-.062.468.027.816C.13-.516.003-.014 0 0" style="fill:#fff;fill-opacity:1;fill-rule:nonzero;stroke:none" transform="translate(122.656 736.948)"/><path d="M0 0a1.673 1.673 0 0 0-.029.632L-.03.628l.007.04-.033.003-.029.161.008.046.008.049-.066.01-.008-.048-.045-.252A1.145 1.145 0 0 1-.181.211l.009-.066a.507.507 0 0 0-.241.216L-.476.338a1.687 1.687 0 0 0-.138-.886A7.19 7.19 0 0 0-.82-.953l-.045-.099a6.009 6.009 0 0 1-.622.337c-.182.091-.468.44-.505.546l-.065-.007a.314.314 0 0 0-.128-.186.984.984 0 0 1-.214.446c-.171.191-.275.326-.297.454l-.067-.004a1.464 1.464 0 0 1 0-.258l.069-.133c.035-.039.087-.095.174-.214.167-.23.215-.495.215-.497l.007-.041.038.015a.739.739 0 0 1 .233.137c.097-.179.351-.405.512-.473.577-.249.705-.407.706-.408l.041-.053.019.064c.023.084.025.087.136.309l.13.262c.182.363.203.644.202.772a.454.454 0 0 1 .252-.058l.038.004L0 0z" style="fill:#231f20;fill-opacity:1;fill-rule:nonzero;stroke:none" transform="translate(122.703 736.31)"/><path d="m0 0-.144-.403-.176.432-.299-.781.353.087-.149-.347c-.096-.127-.815-.288-.84.206l.003.01c-.007.178.012.497.418.226 0 0 .243.689-.4.41 0 0 .257.391-.113.67h-.006c-.376-.268-.13-.665-.13-.665-.635.296-.411-.399-.411-.399.414.258.424-.061.412-.238v-.01c-.017-.206-.145-.297-.49-.296 0 0-.613.03-.515.743 0 0 .208.128.423-.21l-.009.932s-.149-.276-.428-.319c0 0-.119.272.195.571h-.359L-3.12.617c.314-.297.195-.569.195-.569-.28.042-.428.317-.428.317l-.007-.93c.215.338.426.21.426.21.1-.713-.491-.746-.491-.746-.346-.002-.501.092-.516.297l-.001.01c-.01.176-.002.495.412.236 0 0 .22.699-.412.4 0 0 .245.398-.135.665h-.003c-.368-.28-.11-.672-.11-.672-.459.2-.421-.226-.39-.405.397.261.415-.054.411-.229V-.81c-.025-.493-.922-.432-.975-.274l-.169.469.321-.183-.11.819-.242-.336-.063.426-.119-.307.503-1.701c1.384.339 3.232.297 4.468.009L.061-.297 0 0z" style="fill:#fff;fill-opacity:1;fill-rule:nonzero;stroke:none" transform="translate(130.547 739.306)"/><path d="m0 0-.181.186.226.008-.127.365-.172-.181.016.299L-.643.54l.216-.227-.211.019.116-.362.178.152-.024-.328-.002-.051a.258.258 0 1 1 .516.028L0 0" style="fill:#fff;fill-opacity:1;fill-rule:nonzero;stroke:none" transform="translate(120.413 740.471)"/><path d="m0 0 .038-.086-.009-.081c.724.134 1.168-.221 1.323-.398l-.021-.317C1.29-.958.943-1.198.835-.963v.007c-.037.084-.086.245.195.201 0 0 .006.389-.304.115 0 0 .072.244-.189.303L.536-.338C.373-.552.585-.692.585-.692.172-.684.428-.976.428-.976c.186.215.251.061.277-.028l.002-.005c.03-.102-.025-.177-.22-.25 0 0-.352-.119-.429.254 0 0 .092.105.275-.013l-.177.453S.124-.731-.027-.811c0 0-.117.106.003.32l-.202-.078-.257-.098c.233-.078.218-.237.218-.237-.166-.04-.301.064-.301.064l.169-.456c.059.21.202.193.202.193.191-.327-.139-.472-.139-.472-.194-.074-.298-.063-.346.037l-.001.002c-.04.084-.093.242.186.205 0 0-.004.39-.305.106 0 0 .062.249-.2.296h-.003c-.155-.215.064-.351.064-.351-.431-.001-.15-.287-.149-.288.179.22.249.069.279-.02l.001-.003c.081-.248-.356-.344-.415-.281a.89.89 0 0 0-.184.297c-.021.073-.139.593.593 1.08l-.051.056-.037.071c-.586-.4-.663-.848-.699-1.192l.488-.775c1.114.722 1.326.826 2.548.995l.046.901S.937.173 0 0" style="fill:#fff;fill-opacity:1;fill-rule:nonzero;stroke:none" transform="translate(120.722 740.435)"/><path d="M0 0a3.81 3.81 0 0 0-.164.38l.008-.234c.06-.329.328-.744.328-.744-1.279-1.381-3.427.155-4.024.43-1.071.49-2.744-1.308-2.832-1.975-.12-.919-.552-1.062-.552-1.062.173.408-.13.601-.224.612-.095.011-.936.043-.986-.022C-8.963-3.295-8.552-4-8.552-4c.849.02.521-.685.521-.685-.086-.206-.277-.206-.277-.206.035.696-.639.654-.639.654.57-.225.45-.573.45-.573-.199.073-.321-.257-.321-.257-.847.531-.721 1.548-.721 1.548.228 1.76.506 2 .506 2 .12.061.173-.02.173-.02.418-.294.848-.022.848-.022.167.084.258.451.258.451.204.758.571 1.184.571 1.184l-2.099-.541c-.83-.204-1.043-.812-1.043-.812-.355.71.244.883.244.883-.528.148-.613.542-.613.542-.213.518.157 1.829 1.467 2.296l.331.099c.418.61.999.674.999.674-.083-.175-.239-.311-.239-.311.396.073.756.379.756.379-.021-.497-.496-.682-.496-.682l-.001-.013c.649.015 4.766.042 4.766.042 1.025.158.9 1.363.9 1.363-.214.922-1.451.422-1.451.422-3.032-1.53-3.673.597-3.673.597 1.354-.75 1.624-.524 1.624-.524-.607.18-.765.698-.765.698 1.249-.43 1.36-.191 1.36-.191-.45.007-.528.428-.528.428.334-.131 1.227-.144 1.227-.144.456.027 1.232-.048 1.232-.048 1.346-.226 1.335-1.226 1.335-1.226.045-1.723-1.227-1.746-1.227-1.746-.556-.052-4.086-.019-4.811-.02l-.001-.015s.493-.128.57-.622c0 0-.391.265-.794.293 0 0 .171-.118.273-.282 0 0-.597-.078-.991.524 0 0-.05-.008-.355-.118-1.126-.405-1.136-1.392-1.136-1.392-.117-.756.927-.716.927-.716.458.01 1.369.265 1.369.265.454.142 5.022 1.483 5.576 1.681.795.285 1.375 1.077 1.375 1.077.093-.102.199-.854.199-.854a.438.438 0 0 1 .294.172c.157-.55.827-.817.827-.817.223-.039.452-.333.452-.333l.108.274c.102-.14.706-.715 1.537-1.239l1.546-.973c.679.746 1.198.155 1.1.103l-.185.038a.798.798 0 0 1-.56-.129c.814.122.924-.144.924-.144.174-.409-.353-.593-.353-.593 0 .532-.517.512-.517.512.379-.205.35-.539.35-.539-.156-.469-.559-.115-.559-.115-.154.061-.379.266-.379.266-1.278.084-2.213.822-2.354.898-.123.067-.394-.267-.597-.242C.399-.735 0 0 0 0" style="fill:#fff;fill-opacity:1;fill-rule:nonzero;stroke:none" transform="translate(121.068 732.83)"/><path d="m0 0-.002.072L.03.07C.102.065.102.106.099.197L.08.751C.077.842.075.883.004.899l-.032.007-.002.071C.064.963.16.951.258.938L.326.931A.55.55 0 0 0 .641.819.575.575 0 0 0 .842.392C.85.215.789.073.676-.003.584-.062.484-.056.372-.045l-.036.006A9.329 9.329 0 0 0 0 0m.303.172C.308.067.313.033.422.021.568.004.631.134.619.414.608.692.529.838.386.854.282.867.28.83.282.728L.303.172" style="fill:#231f20;fill-opacity:1;fill-rule:nonzero;stroke:none" transform="translate(115.118 727.826)"/><path d="m0 0-.033-.001c-.071-.002-.071-.04-.065-.131.011-.181.02-.363.03-.545.005-.09.011-.13.081-.139l.034-.003.004-.069c-.138.005-.28.013-.419.022l-.004.067.034.001.066.132-.03.548-.078.139-.034.007-.003.068.413-.026L0 0" style="fill:#231f20;fill-opacity:1;fill-rule:nonzero;stroke:none" transform="translate(116.679 728.58)"/><path d="M0 0h-.059c-.036.17-.123.251-.277.253-.105.001-.107-.034-.1-.137l.014-.208.051-.001c.087-.003.128.053.125.17l.059.001c.01-.142.019-.284.03-.425h-.059c-.016.126-.063.185-.152.187h-.049l.016-.264c.009-.11.014-.142.106-.142.167 0 .239.075.269.279h.059L.05-.628c-.25-.003-.499-.001-.749.004l-.003.07.033.001.064.131L-.64.12c-.006.092-.01.129-.08.137L-.754.26l-.004.07c.244-.009.487-.014.73-.014L0 0" style="fill:#231f20;fill-opacity:1;fill-rule:nonzero;stroke:none" transform="translate(117.741 728.305)"/><path d="m0 0-.033-.004-.064-.094.035-.423A.64.64 0 0 1-.029-.71l.178-.092c.151.007.194.105.174.303-.009.116-.02.233-.031.35-.01.12-.043.161-.139.159L.147.076l.321.02.006-.068C.379.021.355-.025.366-.145l.029-.327c.012-.126.018-.221-.034-.3C.316-.844.234-.884.12-.889c-.135-.009-.231.017-.295.081-.07.073-.083.168-.095.305-.009.132-.02.265-.031.398l-.079.092h-.035l-.006.067c.14.003.277.009.416.014L0 0" style="fill:#231f20;fill-opacity:1;fill-rule:nonzero;stroke:none" transform="translate(118.494 728.572)"/><path d="m0 0-.06-.011c-.042.162-.132.227-.286.207C-.451.182-.451.145-.441.048l.025-.202.05.007c.088.013.125.072.117.185l.059.008.048-.408-.06-.009c-.019.121-.068.173-.156.16l-.051-.007.027-.255c.012-.105.019-.134.112-.123.164.025.233.11.254.312l.06.008.03-.328a19.078 19.078 0 0 0-.745-.107l-.008.066.034.007.058.138c-.018.175-.038.35-.057.523l-.084.12h-.035L-.77.21c.243.026.487.057.729.095L0 0" style="fill:#231f20;fill-opacity:1;fill-rule:nonzero;stroke:none" transform="translate(120.553 728.531)"/><path d="m0 0-.055-.009c-.081.187-.153.268-.268.245L-.34.179l.082-.629.086-.074.053.008.01-.063a16.01 16.01 0 0 0-.456-.092l-.008.065.053.014.06.101-.082.63-.033.049C-.688.166-.734.062-.765-.148L-.818-.16c-.014.118-.026.237-.039.358.268.047.536.098.801.153L0 0" style="fill:#231f20;fill-opacity:1;fill-rule:nonzero;stroke:none" transform="translate(121.717 728.691)"/><path d="M0 0v-.07c-.091.021-.178.044-.268.067v.069c.086-.019.103.018.104.142l.003.511-.066.15-.03.012v.068C-.152.922-.048.895.056.871L.228.217C.284.408.339.6.392.792.498.769.602.749.708.728l.001-.07-.031.004-.066-.12.004-.543.069-.148.033-.01v-.068C.592-.202.466-.178.34-.149v.07l.024-.004.069.119L.43.709C.352.434.272.157.192-.117l-.049.013C.061.207-.02.519-.098.831L-.101.193C-.103.07-.087.024 0 0" style="fill:#231f20;fill-opacity:1;fill-rule:nonzero;stroke:none" transform="translate(133.594 728.198)"/><path d="M0 0a.649.649 0 0 0 .134-.385.474.474 0 0 0-.115-.35.323.323 0 0 0-.292-.089.46.46 0 0 0-.299.182.633.633 0 0 0-.127.39c-.002.15.035.266.115.345a.324.324 0 0 0 .288.084A.471.471 0 0 0 0 0m-.075-.355c-.008.287-.084.443-.217.463-.136.024-.203-.111-.2-.398.006-.285.079-.445.216-.468.139-.021.207.116.201.403" style="fill:#231f20;fill-opacity:1;fill-rule:nonzero;stroke:none" transform="translate(135.206 728.66)"/><path d="m0 0-.002.07.276-.022.004-.069C.193-.019.177-.059.183-.186l.033-.715-.09.006c-.169.248-.339.496-.506.747l.015-.461c.003-.127.025-.17.118-.184l.002-.066a5.66 5.66 0 0 0-.289.03l-.002.068c.092-.007.108.033.105.158l-.02.562-.114.1-.001.068.243-.026c.151-.231.304-.458.457-.683-.007.136-.01.271-.017.402C.111-.051.092-.011 0 0" style="fill:#231f20;fill-opacity:1;fill-rule:nonzero;stroke:none" transform="translate(136.078 728.605)"/><path d="m0 0-.005.07.031.002.062.131C.079.384.067.565.056.749l-.075.136-.032.003-.005.07C.035.953.125.951.215.951L.281.95C.388.949.485.943.579.874a.542.542 0 0 0 .2-.404C.79.294.737.144.634.06.548-.008.457-.009.35-.009l-.034.001L0 0m.281.198C.288.093.293.06.395.06.532.059.587.192.568.468.549.742.473.88.339.881.241.881.24.846.246.744.258.563.268.381.281.198" style="fill:#231f20;fill-opacity:1;fill-rule:nonzero;stroke:none" transform="translate(136.977 727.665)"/><path d="m0 0 .031-.001.006-.07c-.129-.007-.26-.012-.391-.015l-.004.069.031.003c.066.008.065.046.058.137l-.042.546-.079.132-.031.002-.006.069c.113.002.224.007.335.013C.162.898.289.856.305.676.318.543.235.466.054.435.165.415.231.368.27.265L.305.128.347.074c.038.004.046.062.036.183L.434.26.439.213C.456.028.401-.073.289-.079l-.124.058C.12.04.108.136.087.268.068.386.025.413-.093.409H-.1l.022-.28L0 0m-.106.467.051.001c.127.007.179.056.168.187C.104.765.046.823-.04.818-.131.814-.131.773-.123.672l.017-.205" style="fill:#231f20;fill-opacity:1;fill-rule:nonzero;stroke:none" transform="translate(138.343 727.747)"/><path d="M0 0a.559.559 0 0 0 .161-.355.575.575 0 0 0-.084-.386.383.383 0 0 0-.275-.169.368.368 0 0 0-.307.105.564.564 0 0 0-.157.358.55.55 0 0 0 .086.379A.388.388 0 0 0 0 0m-.045-.381c-.03.287-.115.427-.25.408-.131-.013-.188-.166-.16-.455.029-.288.115-.429.249-.414.134.014.191.172.161.461" style="fill:#231f20;fill-opacity:1;fill-rule:nonzero;stroke:none" transform="translate(139.596 728.642)"/><path d="m0 0-.027-.008c-.063-.017-.06-.055-.051-.147.021-.182.044-.363.066-.544.009-.093.017-.131.081-.126l.029.002.009-.068a7.957 7.957 0 0 0-.381-.062l-.008.069.032.008.049.145-.059.546-.081.124h-.032l-.008.067c.125.02.25.042.373.064L0 0" style="fill:#231f20;fill-opacity:1;fill-rule:nonzero;stroke:none" transform="translate(140.275 728.79)"/><path d="m0 0-.049-.01c-.078.204-.142.291-.246.268L-.31.199c.031-.226.061-.451.088-.678l.079-.078.047.008.01-.07-.408-.088-.008.069.045.014.055.108-.087.673-.028.051C-.62.186-.661.078-.684-.147l-.048-.011c-.012.126-.026.254-.04.381.241.047.477.098.715.155C-.038.252-.021.126 0 0" style="fill:#231f20;fill-opacity:1;fill-rule:nonzero;stroke:none" transform="translate(141.208 728.667)"/><path d="M0 0s-1.643-2.246-1.815-2.414c-.103-.103-.786.22-.786.22.005-.192-.108-.377-.108-.377-.068-.163-.122-.551-.122-.551l.547-.384c.18-.116.56-.143.698-.048.14.095.488.828.488.828C-.767-1.254.062-.705.062-.705L.1-.524c-.277.11-.195.383-.1.524" style="fill:#fff;fill-opacity:1;fill-rule:nonzero;stroke:none" transform="translate(125.117 737.153)"/><path d="M0 0s-2.152.51-4.484.04c0 0-.197-.014-.183-.194.007-.102.078-.183.178-.183l.094.014c.363.063 2.457.462 4.293-.03l.076-.016c.102 0 .186.082.185.182C.155-.035 0 0 0 0" style="fill:#fff;fill-opacity:1;fill-rule:nonzero;stroke:none" transform="translate(129.959 737.118)"/><path d="m0 0-.131.1a.462.462 0 1 1-.032-.211l.145.017L0 0zm-.59-.21a.271.271 0 0 0-.271.269.27.27 0 0 0 .539 0A.27.27 0 0 0-.59-.21" style="fill:#231f20;fill-opacity:1;fill-rule:nonzero;stroke:none" transform="translate(133.32 736.343)"/><path d="M0 0c.644-.147 1.786-.388 1.786-.388 1.112-.222 1.165-.889 1.165-.889.31.695-.246.895-.246.895.538.135.637.526.637.526.241.521.415 1.829-1.06 2.297l-.373.1c-.469.607-1.123.674-1.123.674.093-.176.27-.313.27-.313-.446.074-.851.381-.851.381.022-.499.559-.683.559-.683v-.014c-.731.015-3.427.044-3.427.044-1.152.157-1.013 1.362-1.013 1.362.242.924 1.634.422 1.634.422 3.41-1.531 4.13.596 4.13.596C.565 4.262.262 4.486.262 4.486c.683.18.862.698.862.698-1.407-.43-1.534-.19-1.534-.19.508.008.595.428.595.428-.375-.13-1.38-.145-1.38-.145-.513.028-1.387-.046-1.387-.046-1.512-.227-1.498-1.228-1.498-1.228-.051-1.719 1.378-1.744 1.378-1.744.624-.055 2.665-.021 3.479-.022v-.014S.222 2.095.138 1.6c0 0 .441.266.892.293 0 0-.193-.117-.306-.282 0 0 .671-.075 1.113.523 0 0 .055-.006.4-.115 1.267-.407.856-1.482.856-1.482-.224-.799-1.212-.626-1.212-.626-.516.008-4.473.981-4.473.981l.093-.177c.217-.038.296-.137.316-.235.024-.111-.023-.214-.023-.214-.034-.123-.11-.184-.11-.184l.051-.203c.623-.173.713-.987.713-.987.083-.572.408-.812.408-.812.83-.736 1.705-.613 1.705-.613.276.022.326-.062.326-.062.296-.162.243-.961.243-.961.018-.325-.139-.654-.139-.654.087-.265.588-.122.588-.122l.09.122c.053.144-.062.287-.062.287l.006.062c.305-.163.279-.532.279-.532.49.613-.19 1.042-.19 1.042-.095.011-.165.052-.165.052-.079.316-.098.936-.096 1.113.003.177-.129.353-.258.284-.39-.206-1.166.055-1.166.055C.224-1.012-.067.015-.067.015L0 0z" style="fill:#fff;fill-opacity:1;fill-rule:nonzero;stroke:none" transform="translate(141.484 732.76)"/><path d="M0 0a.333.333 0 1 0-.667-.001A.333.333 0 0 0 0 0" style="fill:#231f20;fill-opacity:1;fill-rule:nonzero;stroke:none" transform="translate(139.353 733.15)"/><path d="M0 0a.423.423 0 0 1-.277.171l-.015.34c.134.05.234.176.234.328a.348.348 0 0 1-.278.336c-.01.117-.022.238-.035.361a.314.314 0 0 1 .196.291c0 .16-.121.287-.276.308a6.86 6.86 0 0 1-.048.27l-.131.03a5.87 5.87 0 0 0 .057-.308.314.314 0 0 1-.234-.3c0-.173.14-.312.312-.315l.03-.334A.347.347 0 0 1-.42.49c.007-.132.01-.244.012-.319-.212-.034-.375-.24-.375-.49 0-.273.198-.496.444-.496.243 0 .443.223.443.496A.54.54 0 0 1 0 0m-.339-.586c-.123 0-.224.12-.224.267 0 .147.101.267.224.267.09 0 .169-.064.203-.159l.018-.108c0-.147-.099-.267-.221-.267" style="fill:#231f20;fill-opacity:1;fill-rule:nonzero;stroke:none" transform="translate(139.734 730.136)"/><path d="m0 0-.017-.245s.297.044.509.115C.47-.13.03-.123 0 0" style="fill:#fff;fill-opacity:1;fill-rule:nonzero;stroke:none" transform="translate(140.267 729.489)"/><path d="m0 0-.119-.275s-.632-.042-.78.201c0 0 .306.031.899.074" style="fill:#fff;fill-opacity:1;fill-rule:nonzero;stroke:none" transform="translate(115.444 729.514)"/><path d="m0 0-.313-.313-.08.142.27.269-.143.127-.22-.267-.112.123.213.258-.018.017-.102.105-.202-.282-.121.09.219.303-.108.124-.212-.365-.108.064.158.431c-.11.145-.093.156-.093.156s-.118-.543-.382-.99c0 0 .512-.137.753-.687l.763.635L0 0z" style="fill:#fff;fill-opacity:1;fill-rule:nonzero;stroke:none" transform="translate(132.778 730.598)"/><path d="M127.554 740.182h.536v.544h-.536v-.544z" style="fill:#fff;fill-opacity:1;fill-rule:nonzero;stroke:none"/><path d="M0 0c-.163.037-.357-.063-.465-.257-.119-.196-.106-.425.021-.544a2 2 0 0 0 .454.694L0 0" style="fill:#fff;fill-opacity:1;fill-rule:nonzero;stroke:none" transform="translate(125.44 740.125)"/><path d="M0 0c.138.129.294.25.47.354a.33.33 0 0 1-.285.094C.022.414-.08.241-.083.033l.078-.031L0 0" style="fill:#fff;fill-opacity:1;fill-rule:nonzero;stroke:none" transform="translate(125.523 740.091)"/><path d="M0 0c-.011.258-.169.463-.351.454L-.528.366A2.74 2.74 0 0 0 0-.033V0" style="fill:#fff;fill-opacity:1;fill-rule:nonzero;stroke:none" transform="translate(130.16 740.095)"/><path d="M0 0c-.14.254-.402.377-.582.278L-.631.24c.262-.258.407-.415.496-.746.007.004.277.254.135.506" style="fill:#fff;fill-opacity:1;fill-rule:nonzero;stroke:none" transform="translate(130.808 739.804)"/><path d="m0 0-.005-.515s-1.128.112-2.145-.651c0 0 .693.965 2.15 1.166" style="fill:#fff;fill-opacity:1;fill-rule:nonzero;stroke:none" transform="translate(127.393 740.707)"/><path d="m0 0 .006-.515s1.127.112 2.144-.651c0 0-.692.965-2.15 1.166" style="fill:#fff;fill-opacity:1;fill-rule:nonzero;stroke:none" transform="translate(128.251 740.707)"/><path d="m0 0 .042.192.23-.046.048.09a.762.762 0 0 1-.259.057c.027.116.032.262.032.365h.001-.001v.029l.013.071-.015.001L.09.781-.027.778l.002-.016-.222-.038c0 .135-.033.301-.039.324l-.017-.002.008.066a1.296 1.296 0 0 1-.355 0l.006.047-.118.009-.016-.09-.233.066-.001.008h-.06l-.141-.017.072-.082-.001-.002.011.002A1.097 1.097 0 0 0-1.24.646L-1.295.61l.021-.018-.032-.043.097-.06.06.084c.09.033.213.014.274 0a.942.942 0 0 0-.109-.41L-.985.16-.987.159-.995.134l-.071-.076.026-.011-.01-.013.087-.07.069.113c.13.095.337.1.437.096A1.383 1.383 0 0 0-.56-.151l-.069-.087.011-.005-.019-.027.094-.061.084.123c.099.093.219.1.292.095.001-.007.01-.181-.087-.288l.095-.063A.521.521 0 0 1-.05-.12l.004.007C.091-.073.259-.14.26-.14l.048.09C.3-.048.156.012 0 0m-.024.66A1.597 1.597 0 0 0-.062.287a.662.662 0 0 1-.24.003.934.934 0 0 1 .044.306l.234.064M-.827.227c.063.16.071.299.071.356.124.072.308.021.381-.002a.924.924 0 0 0-.056-.31A1.046 1.046 0 0 1-.827.227m.119.484c.031.115.029.239.028.285.031.024.149.034.281.026.015-.074.041-.234.032-.338a.72.72 0 0 1-.341.027m-.384-.024c.052.133.072.263.078.352l.217-.063A.71.71 0 0 0-.849.671a.8.8 0 0 1-.243.016m.701-.729c.031.094.048.177.056.222.123.031.214.02.258.009l-.051-.202a.583.583 0 0 1-.263-.029" style="fill:#231f20;fill-opacity:1;fill-rule:nonzero;stroke:none" transform="translate(131.866 729.304)"/><path d="m0 0 .315-.272L.63 0 .315.271 0 0z" style="fill:#231f20;fill-opacity:1;fill-rule:nonzero;stroke:none" transform="translate(127.482 738.04)"/><path d="M0 0c.004-.073-.105-.141-.246-.15-.143-.012-.261.041-.267.114-.006.074.104.142.247.151C-.126.125-.007.073 0 0" style="fill:#231f20;fill-opacity:1;fill-rule:nonzero;stroke:none" transform="translate(126.757 737.918)"/><path d="M0 0c-.009-.072-.127-.119-.269-.104-.14.016-.247.089-.239.161.007.074.128.121.27.106C-.099.146.009.074 0 0" style="fill:#231f20;fill-opacity:1;fill-rule:nonzero;stroke:none" transform="translate(129.276 737.86)"/><path d="M0 0c-.401.111-.477.372-.479.382l-.049.027-.026-.048A.52.52 0 0 1-.437.17a.316.316 0 0 1-.051-.194.182.182 0 0 1 .18-.181l.173.17.115-.04.047.027L0 0" style="fill:#231f20;fill-opacity:1;fill-rule:nonzero;stroke:none" transform="translate(134.549 738.8)"/><path d="m0 0-.06-.058L-.119 0l.059.06L0 0z" style="fill:#fff;fill-opacity:1;fill-rule:nonzero;stroke:none" transform="translate(134.228 738.826)"/><path d="m0 0 .04-.212a.428.428 0 0 1 .586-.206l.14.097" style="fill:#fff;fill-opacity:1;fill-rule:nonzero;stroke:none" transform="translate(124.47 731.284)"/><path d="m0 0 .225-.139.149.186-.009.032L0 0z" style="fill:#fff;fill-opacity:1;fill-rule:nonzero;stroke:none" transform="translate(124.591 732.453)"/><path d="m0 0 .017-.07.03.003-.032.398-.03-.002-.01-.08-.063-.034-.567-.042L-.727.2l-.019.072-.029-.003.015-.197.14-.087.548.043L0 0z" style="fill:#fff;fill-opacity:1;fill-rule:nonzero;stroke:none" transform="translate(124.881 732.687)"/><path d="M0 0a.412.412 0 0 1 .517.296.403.403 0 0 1-.033.313.416.416 0 0 1-.269.196.423.423 0 0 1-.332-.039.4.4 0 0 1-.192-.254.407.407 0 0 1 .038-.321A.428.428 0 0 1 0 0m-.271.502.136.12A.574.574 0 0 0 .16.603L.372.52C.465.461.502.389.477.305.454.218.387.174.274.169a.85.85 0 0 0-.225.033l-.208.082c-.097.06-.134.132-.112.218" style="fill:#fff;fill-opacity:1;fill-rule:nonzero;stroke:none" transform="translate(124.556 734.032)"/><path d="m0 0 .08.002.53-.235.052-.061-.018-.069.026-.014.172.374L.816.01.764-.059.69-.056.16.176.108.237l.021.074-.028.013-.173-.376.026-.01L0 0z" style="fill:#fff;fill-opacity:1;fill-rule:nonzero;stroke:none" transform="translate(124.516 735.133)"/><path d="m0 0-.475.307.092.092.197-.016.016.028-.197.126-.385-.573.197-.127.017.028-.091.168.051.122.515-.333.057-.062-.031-.086.025-.018.012.02" style="fill:#fff;fill-opacity:1;fill-rule:nonzero;stroke:none" transform="translate(125.45 735.623)"/><path d="m0 0 .382.272.088.032.076-.066.025.018L.32.594.295.577l.03-.068L.287.44 0 .24" style="fill:#fff;fill-opacity:1;fill-rule:nonzero;stroke:none" transform="translate(129.967 735.742)"/><path d="m0 0 .063-.085.254.119-.02.03A.413.413 0 0 0 .065.056l-.066.038" style="fill:#fff;fill-opacity:1;fill-rule:nonzero;stroke:none" transform="translate(129.967 735.384)"/><path d="m0 0 .047-.018.031-.035.027.011-.112.231-.026-.013.022-.068-.028-.041-.065-.008-.052.004-.243.025.19.257.024.026.015.013.031-.007.04-.065.027.012-.166.348-.028-.013.009-.04-.027-.07-.264-.353-.157-.072-.09-.016-.055.068-.027-.014.173-.361.028.014-.018.084.07.055.197.09L0 0z" style="fill:#fff;fill-opacity:1;fill-rule:nonzero;stroke:none" transform="translate(130.975 735.023)"/><path d="m0 0 .003.084.079.04.216.052.041-.152.053-.095.103-.08.117-.006.148.113a.42.42 0 0 1-.004.236l-.09.363L.637.549.631.468.555.43.038.31h-.087l-.042.068-.03-.007.09-.377L0 0zm.652.258L.687.251.708.204.683.093.56.037.396.056.339.185l.313.073z" style="fill:#fff;fill-opacity:1;fill-rule:nonzero;stroke:none" transform="translate(130.514 734.094)"/><path d="m0 0-.577-.042-.073.028-.017.069-.03-.001.021-.299c.178.105.408.17.712.147l.086-.003-.015.21h-.03L.066.036 0 0" style="fill:#fff;fill-opacity:1;fill-rule:nonzero;stroke:none" transform="translate(131.229 733.719)"/><path d="m0 0-.085-.009-.341.042v.006l.434.214C-.13.226-.247.265-.507-.005l.436-.057.065-.027.014-.074.031-.002.032.241-.03.003L0 0" style="fill:#fff;fill-opacity:1;fill-rule:nonzero;stroke:none" transform="translate(131.232 732.196)"/><path d="m0 0-.142-.003-.15-.113-.058-.059-.078-.069-.093-.005-.016.008-.028-.117.079-.043.172.012.087.067.066.067.118.105.087.006.065-.054.005-.093-.101-.111-.168-.031-.01-.03.241-.072.012.031-.024.019-.005.028.038.057.053.108-.015.19L0 0z" style="fill:#fff;fill-opacity:1;fill-rule:nonzero;stroke:none" transform="translate(131.052 731.974)"/><path d="m0 0 .009.031-.099.03-.037-.065L0 0z" style="fill:#fff;fill-opacity:1;fill-rule:nonzero;stroke:none" transform="translate(130.758 732.036)"/><path d="m0 0-.076.001-.314.157.059-.239.184-.09.034-.034-.022-.064-.125-.152-.125-.005-.021-.037.17-.085.308.59-.026.015L0 0z" style="fill:#fff;fill-opacity:1;fill-rule:nonzero;stroke:none" transform="translate(130.96 731.206)"/><path d="m0 0-.066-.032-.223-.069c-.114-.015-.192.019-.229.103l.021.175" style="fill:#231f20;fill-opacity:1;fill-rule:nonzero;stroke:none" transform="translate(125.066 731.088)"/><path d="M0 0s1.499-.089 2.96-1.019l-.374-.534S.814-.632-.143-.659L0 0z" style="fill:#fff;fill-opacity:1;fill-rule:nonzero;stroke:none" transform="translate(133.496 736.547)"/><path d="M0 0c-.299-.306-.515-.029-.505.078l.042.173.096-.11.122.266-.168-.061.065.141-.14.018-.134-.695c.751-.035 1.734-.429 2.717-.933l.428.593-.097.063-.103-.147-.149.151-.105-.225.203-.016-.115-.101c-.263-.194-.659.017-.638.266v.004s.054.189.238.008c0 0 .206.177-.132.188 0 0 .171.083.044.226h-.002c-.201-.023-.154-.185-.154-.185-.164.137-.226 0-.244-.058.221.013.174-.086.14-.139L1.405-.5C1.198-.676.789-.508.776-.245l.003.016c.016.057.07.147.248-.011.036.048.101.168-.156.199 0 0 .176.067.025.225H.892C.682.161.762 0 .762 0c-.2.136-.239 0-.248-.058.233.011.209-.089.178-.143L.683-.212C.467-.402.091-.293.11-.036c0 0 .055.189.241.007 0 0 .203.175-.135.19 0 0 .171.08.046.223H.258C.057.363.105.201.105.201c-.164.136-.226 0-.247-.06C.081.154.036.057.002.005L0 0z" style="fill:#231f20;fill-opacity:1;fill-rule:nonzero;stroke:none" transform="translate(133.966 736.064)"/><path d="M0 0v-.664c.713.062.641-.468.641-.468.294-.102.113-.617.113-.617.103-.285-.026-.612-.026-.612.316-.747 1.165-1.108 1.251-1.185V0H0z" style="fill:#fff;fill-opacity:1;fill-rule:nonzero;stroke:none" transform="translate(125.59 733.18)"/><path d="M0 0c-1.051.023-1.744-.205-1.983-.301l.004-2.743H0V0z" style="fill:#fff;fill-opacity:1;fill-rule:nonzero;stroke:none" transform="translate(127.606 736.563)"/><path d="M0 0h1.812l.006 2.768A11.75 11.75 0 0 1 0 3.039V0z" style="fill:#fff;fill-opacity:1;fill-rule:nonzero;stroke:none" transform="translate(127.925 733.518)"/><path d="M0 0c.92.213 1.241.956 1.241.956.054.349.575 1.808.575 1.808l-.004.779H0V0z" style="fill:#fff;fill-opacity:1;fill-rule:nonzero;stroke:none" transform="translate(127.925 729.61)"/><path d="M0 0c.119.038.196.087.217.122C.236.156.205.3.168.464.129.63.303.61.303.61c.466-.06.373.408.373.408C.477.839.39.904.294.884-.071.801-.002.546.045.47L.131.167-.026.094-.197.065l-.106.294c-.003.093-.093.338-.442.193-.091-.038-.122-.14-.389-.111 0 0 .196-.433.54-.115 0 0 .131.115.196-.041.064-.156.124-.293.159-.308.035-.017.127-.013.247.027L0 0z" style="fill:#231f20;fill-opacity:1;fill-rule:nonzero;stroke:none" transform="translate(121.215 737.357)"/><path d="M0 0c.452.674.194 1.357.194 1.357-.062-.976-.539-.243-.539-.243s.019-.874-.583-.106c0 0 .172-.709.928-1.007V0z" style="fill:#231f20;fill-opacity:1;fill-rule:nonzero;stroke:none" transform="translate(121.564 736.254)"/><path d="M0 0c.178-.228.391-.312.391-.312C.528-.07.525.17.525.17.371.037.223.227.223.227.192-.016 0 0 0 0" style="fill:#fff;fill-opacity:1;fill-rule:nonzero;stroke:none" transform="translate(121.104 736.79)"/><path d="M0 0c.304.253.448.724.447 1.247l-.054.056-.056-.078C.322.753.178.331-.117.083L-.1.008 0 0" style="fill:#231f20;fill-opacity:1;fill-rule:nonzero;stroke:none" transform="translate(135.086 732.403)"/><path d="M0 0c.288.237.426.684.425 1.179l-.054.054-.05-.075C.307.713.17.313-.109.08l.015-.072L0 0" style="fill:#231f20;fill-opacity:1;fill-rule:nonzero;stroke:none" transform="translate(135.55 732.322)"/><path d="M0 0c.28.233.415.669.414 1.153l-.053.051-.052-.073C.298.697.163.307-.108.077l.015-.071L0 0" style="fill:#231f20;fill-opacity:1;fill-rule:nonzero;stroke:none" transform="translate(135.967 732.24)"/><path d="M0 0c-.304.251-.45.72-.446 1.245l.053.056.057-.077C-.323.754-.178.329.115.083L.1.007 0 0" style="fill:#231f20;fill-opacity:1;fill-rule:nonzero;stroke:none" transform="translate(120.629 732.268)"/><path d="M0 0c-.289.237-.425.683-.424 1.178l.051.053.054-.072C-.307.712-.169.312.109.08L.094.006 0 0" style="fill:#231f20;fill-opacity:1;fill-rule:nonzero;stroke:none" transform="translate(120.164 732.187)"/><path d="M0 0c-.281.233-.415.668-.413 1.153l.051.051.051-.073C-.299.696-.164.305.107.076L.093.007 0 0" style="fill:#231f20;fill-opacity:1;fill-rule:nonzero;stroke:none" transform="translate(119.748 732.103)"/><path d="m0 0-.033.369.017.287S.079.505.18.412L.311.347 0 0z" style="fill:#fff;fill-opacity:1;fill-rule:nonzero;stroke:none" transform="translate(122.336 728.224)"/><path d="M0 0s-.546.66-1.12-.006c0 0-1.047.228-1.36.495 0 0 .377.211.447.54 0 0 .617-.055.878.314 0 0-.575.11-.921.59-.16.221-.764.765-1.132.781-.413.02-1.2-.175-1.99-1.232 0 0 .704-.248 1.533-.355 0 0 .318-.002.158-.22 0 0-.188-.208-.696-.414 0 0-.132-.044-.127-.253 0 0-.03-.294.074-.328 0 0 .553-.325 1.922-.511 0 0 1.629.028 2.131.115 0 0-.038.382.203.484" style="fill:#fff;fill-opacity:1;fill-rule:nonzero;stroke:none" transform="translate(120.153 729.795)"/><path d="M0 0c-.122.237-.158.709-.158.709s-.22-.726-.705-.902c.056-.051.16-.185.155-.333a.286.286 0 0 0-.283-.281l-.095.02-.139-.483s.381.141.587.368c0 0 .218.298.399.918.081.288-.16-.816-.16-.816l.651.453C.261-.347.161-.251 0 0" style="fill:#fff;fill-opacity:1;fill-rule:nonzero;stroke:none" transform="translate(130.578 729.531)"/><path d="M0 0c0 .093-.057.148-.164.169l-.111.029c-.457.176-.724.437-.724.437V.214c.65-.388.839-.381.841-.381L0 0" style="fill:#fff;fill-opacity:1;fill-rule:nonzero;stroke:none" transform="translate(129.718 729.027)"/><path d="m0 0-.144.118-.088.015C-.607.235-.69.341-.69.341V.21L-.784.113c.609-.313.67-.258.672-.258L0 0" style="fill:#fff;fill-opacity:1;fill-rule:nonzero;stroke:none" transform="translate(129.345 727.714)"/><path d="m0 0-.286-.409s-.126-.18.015-.345l.262-.268s.16-.047.211.159l-.178.188s-.122.12-.038.225l.203.264-.161.161L0 0z" style="fill:#fff;fill-opacity:1;fill-rule:nonzero;stroke:none" transform="translate(125.582 730.043)"/><path d="m0 0-.077-.018-.058.046-.024-.02.26-.318.026.02-.037.065.035.07.194.153-.07.195L0 0z" style="fill:#fff;fill-opacity:1;fill-rule:nonzero;stroke:none" transform="translate(124.981 730.495)"/><path d="m0 0-.078-.017-.058.046L-.161.01l.205-.249.19.247-.08.11L0 0z" style="fill:#fff;fill-opacity:1;fill-rule:nonzero;stroke:none" transform="translate(125.29 730.12)"/><path d="m0 0-.105.073C-.108.07-.152.008-.23-.086l-.145.042a.316.316 0 0 1-.317-.317l.031-.131-.214-.141a.308.308 0 0 1-.251.132.316.316 0 0 1-.316-.317l.003-.015-.184-.009-.174.024.016.081a.316.316 0 0 1-.314.318.318.318 0 0 1-.261-.144l-.242.203.044.151a.315.315 0 0 1-.317.316l-.103-.018c-.086.12-.173.25-.257.397l-.148-.015c.096-.164.195-.312.294-.45a.314.314 0 0 1 .214-.545l.196.072c.088-.085.181-.16.273-.226l-.012-.059c0-.174.142-.315.319-.315.096 0 .178.045.236.114l.231-.032.223.014a.312.312 0 0 1 .279-.178c.176 0 .319.141.319.316l-.014.063.24.158.206-.081c.175 0 .315.142.315.317l-.071.192c.077.095.124.16.131.169" style="fill:#231f20;fill-opacity:1;fill-rule:nonzero;stroke:none" transform="translate(135.42 731.975)"/><path d="m0 0-.128.06a9.57 9.57 0 0 1-.297-.69l-.048.008a.247.247 0 0 1-.246-.246c0-.096.056-.176.135-.216a7.02 7.02 0 0 1-.14-.514.316.316 0 0 1-.3-.313c0-.134.084-.247.202-.293-.015-.166-.01-.257-.01-.268l.141.008c0 .011-.004.094.008.242a.313.313 0 0 1 .096.603c.036.15.084.321.144.511.12.015.216.115.216.24l-.071.174C-.217-.48-.12-.25 0 0" style="fill:#231f20;fill-opacity:1;fill-rule:nonzero;stroke:none" transform="translate(132.554 736.009)"/><path d="M0 0c-.026-.159-.111-.61-.283-.86 0 0 .156.484.212.896-.292.156-.495.335-.495.335C-.688-.094-.978.206-.978.206c-.217-.714.363-.294.61-.289.284.003.099-.182.099-.182A1.606 1.606 0 0 0-.65-.44c-.366-.123-.192-.417-.192-.417.176-.229.417-.162.417-.162.156-.023.156-.145.156-.145.084-.282.327-.144.327-.144.191.173.087.512.087.512-.207.758.07.551.07.551l.067-.114v.249A2.261 2.261 0 0 0 0 0" style="fill:#fff;fill-opacity:1;fill-rule:nonzero;stroke:none" transform="translate(126.463 728.735)"/></g></svg>