<svg xmlns="http://www.w3.org/2000/svg" width="94" height="14" fill="none"><path fill="#fff" d="M14.544 5.347 9.259 5 7.27 0 5.28 5 0 5.347l4.049 3.438L2.72 14l4.549-2.875L11.818 14l-1.329-5.215 4.055-3.438Zm19.793 0L29.053 5l-1.99-5-1.99 5-5.28.347 4.05 3.438L22.513 14l4.55-2.875L31.61 14l-1.328-5.215 4.054-3.438Zm19.794 0L48.846 5l-1.99-5-1.99 5-5.279.347 4.05 3.438L42.306 14l4.55-2.875L51.404 14l-1.328-5.215 4.054-3.438Zm19.793 0L68.64 5l-1.99-5-1.99 5-5.28.347 4.05 3.438L62.1 14l4.549-2.875L71.198 14 69.87 8.785l4.054-3.438Zm19.794 0L88.434 5l-1.99-5-1.99 5-5.28.347 4.05 3.438L81.893 14l4.55-2.875L90.992 14l-1.328-5.215 4.054-3.438Z"/></svg>