<svg width="157" height="44" viewBox="0 0 157 44" fill="none" xmlns="http://www.w3.org/2000/svg">
<path d="M22 1.95411L39.3602 11.9771L39.3603 32.0229L22 42.0459L4.63975 32.0229L4.63975 11.9771L22 1.95411Z" fill="white" stroke="#667085" stroke-width="3.38462"/>
<line x1="20.3087" y1="27.0738" x2="20.3087" y2="15.2277" stroke="#667085" stroke-width="3.38462" stroke-linecap="round"/>
<line x1="20.31" y1="27.0738" x2="25.3869" y2="27.0738" stroke="#667085" stroke-width="3.38462" stroke-linecap="round"/>
<path d="M58.627 27V21.9914L54.2678 15.0995H57.0846L59.8852 19.8077L62.629 15.0995H65.3971L61.0217 22.0076V27H58.627ZM66.1033 21.1228C66.1033 19.9106 66.2846 18.8931 66.6472 18.0706C66.9178 17.4644 67.2858 16.9206 67.7512 16.4389C68.222 15.9573 68.7362 15.6001 69.2936 15.3674C70.035 15.0535 70.8901 14.8965 71.8588 14.8965C73.6122 14.8965 75.0138 15.4404 76.0637 16.5282C77.119 17.616 77.6467 19.1286 77.6467 21.066C77.6467 22.9872 77.1244 24.4916 76.08 25.5794C75.0355 26.6618 73.6392 27.2029 71.8912 27.2029C70.1216 27.2029 68.7145 26.6645 67.67 25.5875C66.6256 24.5052 66.1033 23.0169 66.1033 21.1228ZM68.5792 21.0416C68.5792 22.3892 68.8904 23.412 69.5128 24.1101C70.1351 24.8028 70.9252 25.1492 71.8831 25.1492C72.841 25.1492 73.6257 24.8055 74.2372 24.1182C74.8542 23.4255 75.1627 22.3892 75.1627 21.0092C75.1627 19.6454 74.8623 18.628 74.2616 17.9569C73.6663 17.2858 72.8735 16.9503 71.8831 16.9503C70.8928 16.9503 70.0945 17.2913 69.4884 17.9731C68.8823 18.6496 68.5792 19.6724 68.5792 21.0416ZM79.5137 15.0995H81.9166V21.5449C81.9166 22.5677 81.9463 23.2307 82.0059 23.5338C82.1087 24.0208 82.3522 24.4132 82.7365 24.7108C83.1261 25.0031 83.6565 25.1492 84.3275 25.1492C85.0094 25.1492 85.5235 25.0112 85.8699 24.7352C86.2162 24.4538 86.4246 24.1101 86.4949 23.7042C86.5653 23.2983 86.6005 22.6246 86.6005 21.6829V15.0995H89.0033V21.3501C89.0033 22.7788 88.9384 23.7881 88.8085 24.378C88.6786 24.9679 88.4378 25.4658 88.086 25.8716C87.7396 26.2775 87.2742 26.6022 86.6898 26.8458C86.1053 27.0839 85.3422 27.2029 84.4006 27.2029C83.2641 27.2029 82.4009 27.0731 81.811 26.8133C81.2266 26.5481 80.7639 26.2072 80.4229 25.7905C80.082 25.3683 79.8574 24.9273 79.7491 24.4673C79.5922 23.7854 79.5137 22.7788 79.5137 21.4475V15.0995ZM91.5522 27V15.0995H96.6096C97.8813 15.0995 98.804 15.2077 99.3777 15.4242C99.9567 15.6353 100.419 16.0141 100.766 16.5607C101.112 17.1073 101.285 17.7323 101.285 18.4359C101.285 19.3288 101.023 20.0675 100.498 20.652C99.973 21.231 99.1883 21.5963 98.1438 21.7479C98.6633 22.0509 99.0909 22.3837 99.4264 22.7463C99.7673 23.1089 100.225 23.7529 100.798 24.6783L102.251 27H99.3777L97.6405 24.4105C97.0236 23.485 96.6014 22.9033 96.3741 22.6652C96.1469 22.4216 95.906 22.2566 95.6517 22.17C95.3973 22.078 94.9941 22.032 94.4421 22.032H93.9551V27H91.5522ZM93.9551 20.1324H95.7328C96.8856 20.1324 97.6053 20.0837 97.8922 19.9863C98.179 19.8889 98.4036 19.7212 98.5659 19.483C98.7283 19.2449 98.8094 18.9473 98.8094 18.5901C98.8094 18.1896 98.7012 17.8676 98.4847 17.6241C98.2737 17.3751 97.9733 17.2182 97.5837 17.1533C97.3889 17.1262 96.8044 17.1127 95.8303 17.1127H93.9551V20.1324ZM108.25 27V15.1969H110.653V24.9949H116.628V27H108.25ZM117.862 21.1228C117.862 19.9106 118.043 18.8931 118.406 18.0706C118.676 17.4644 119.044 16.9206 119.51 16.4389C119.98 15.9573 120.494 15.6001 121.052 15.3674C121.793 15.0535 122.648 14.8965 123.617 14.8965C125.37 14.8965 126.772 15.4404 127.822 16.5282C128.877 17.616 129.405 19.1286 129.405 21.066C129.405 22.9872 128.883 24.4916 127.838 25.5794C126.794 26.6618 125.398 27.2029 123.65 27.2029C121.88 27.2029 120.473 26.6645 119.428 25.5875C118.384 24.5052 117.862 23.0169 117.862 21.1228ZM120.338 21.0416C120.338 22.3892 120.649 23.412 121.271 24.1101C121.893 24.8028 122.684 25.1492 123.641 25.1492C124.599 25.1492 125.384 24.8055 125.996 24.1182C126.612 23.4255 126.921 22.3892 126.921 21.0092C126.921 19.6454 126.621 18.628 126.02 17.9569C125.425 17.2858 124.632 16.9503 123.641 16.9503C122.651 16.9503 121.853 17.2913 121.247 17.9731C120.641 18.6496 120.338 19.6724 120.338 21.0416ZM136.825 22.6246V20.6195H142.004V25.3602C141.5 25.8473 140.77 26.2775 139.812 26.6509C138.859 27.0189 137.893 27.2029 136.914 27.2029C135.669 27.2029 134.584 26.9432 133.659 26.4236C132.733 25.8987 132.038 25.1519 131.572 24.1832C131.107 23.209 130.874 22.151 130.874 21.0092C130.874 19.7699 131.134 18.6686 131.654 17.7053C132.173 16.742 132.933 16.0033 133.935 15.4891C134.698 15.0941 135.647 14.8965 136.784 14.8965C138.261 14.8965 139.414 15.2077 140.242 15.8301C141.075 16.447 141.611 17.3021 141.849 18.3953L139.463 18.8417C139.295 18.2573 138.978 17.7973 138.513 17.4617C138.053 17.1208 137.477 16.9503 136.784 16.9503C135.734 16.9503 134.898 17.2831 134.276 17.9488C133.659 18.6144 133.35 19.6021 133.35 20.9117C133.35 22.3242 133.664 23.3849 134.292 24.0939C134.92 24.7974 135.742 25.1492 136.76 25.1492C137.263 25.1492 137.766 25.0518 138.269 24.8569C138.778 24.6567 139.214 24.4159 139.576 24.1345V22.6246H136.825ZM143.741 21.1228C143.741 19.9106 143.922 18.8931 144.285 18.0706C144.555 17.4644 144.923 16.9206 145.389 16.4389C145.859 15.9573 146.374 15.6001 146.931 15.3674C147.672 15.0535 148.528 14.8965 149.496 14.8965C151.25 14.8965 152.651 15.4404 153.701 16.5282C154.756 17.616 155.284 19.1286 155.284 21.066C155.284 22.9872 154.762 24.4916 153.717 25.5794C152.673 26.6618 151.277 27.2029 149.529 27.2029C147.759 27.2029 146.352 26.6645 145.307 25.5875C144.263 24.5052 143.741 23.0169 143.741 21.1228ZM146.217 21.0416C146.217 22.3892 146.528 23.412 147.15 24.1101C147.773 24.8028 148.563 25.1492 149.521 25.1492C150.478 25.1492 151.263 24.8055 151.875 24.1182C152.492 23.4255 152.8 22.3892 152.8 21.0092C152.8 19.6454 152.5 18.628 151.899 17.9569C151.304 17.2858 150.511 16.9503 149.521 16.9503C148.53 16.9503 147.732 17.2913 147.126 17.9731C146.52 18.6496 146.217 19.6724 146.217 21.0416Z" fill="#667085"/>
</svg>
