<svg width="76" height="104" viewBox="0 0 76 104" fill="none" xmlns="http://www.w3.org/2000/svg">
<path d="M37.9996 2.94547L58.6146 14.8475L58.6146 38.6517L37.9996 50.5538L17.3846 38.6517L17.3846 14.8475L37.9996 2.94547Z" fill="white" stroke="#667085" stroke-width="4.01917"/>
<line x1="35.9914" y1="32.7746" x2="35.9914" y2="18.7075" stroke="#667085" stroke-width="4.01917" stroke-linecap="round"/>
<line x1="35.9925" y1="32.7746" x2="42.0213" y2="32.7746" stroke="#667085" stroke-width="4.01917" stroke-linecap="round"/>
<path d="M18.3065 78.375V73.3664L13.9473 66.4745H16.7642L19.5648 71.1827L22.3085 66.4745H25.0767L20.7012 73.3826V78.375H18.3065ZM25.7829 72.4978C25.7829 71.2856 25.9642 70.2681 26.3268 69.4456C26.5974 68.8394 26.9654 68.2956 27.4308 67.8139C27.9016 67.3323 28.4157 66.9751 28.9731 66.7424C29.7146 66.4285 30.5696 66.2715 31.5383 66.2715C33.2917 66.2715 34.6934 66.8154 35.7433 67.9032C36.7986 68.991 37.3262 70.5036 37.3262 72.441C37.3262 74.3622 36.804 75.8666 35.7595 76.9544C34.715 78.0368 33.3188 78.5779 31.5708 78.5779C29.8011 78.5779 28.3941 78.0395 27.3496 76.9625C26.3051 75.8802 25.7829 74.3919 25.7829 72.4978ZM28.2588 72.4166C28.2588 73.7642 28.57 74.787 29.1923 75.4851C29.8147 76.1778 30.6048 76.5242 31.5627 76.5242C32.5206 76.5242 33.3053 76.1805 33.9168 75.4932C34.5338 74.8005 34.8422 73.7642 34.8422 72.3842C34.8422 71.0204 34.5419 70.003 33.9412 69.3319C33.3459 68.6608 32.553 68.3253 31.5627 68.3253C30.5723 68.3253 29.7741 68.6663 29.168 69.3481C28.5618 70.0246 28.2588 71.0474 28.2588 72.4166ZM39.1933 66.4745H41.5961V72.9199C41.5961 73.9427 41.6259 74.6057 41.6854 74.9088C41.7882 75.3958 42.0318 75.7882 42.416 76.0858C42.8057 76.3781 43.336 76.5242 44.0071 76.5242C44.689 76.5242 45.2031 76.3862 45.5494 76.1102C45.8958 75.8288 46.1041 75.4851 46.1745 75.0792C46.2449 74.6733 46.28 73.9996 46.28 73.0579V66.4745H48.6829V72.7251C48.6829 74.1538 48.6179 75.1631 48.488 75.753C48.3582 76.3429 48.1173 76.8408 47.7656 77.2466C47.4192 77.6525 46.9538 77.9772 46.3693 78.2208C45.7849 78.4589 45.0218 78.5779 44.0801 78.5779C42.9437 78.5779 42.0805 78.4481 41.4906 78.1883C40.9061 77.9231 40.4434 77.5822 40.1025 77.1655C39.7615 76.7433 39.5369 76.3023 39.4287 75.8423C39.2718 75.1604 39.1933 74.1538 39.1933 72.8225V66.4745ZM51.2318 78.375V66.4745H56.2891C57.5609 66.4745 58.4836 66.5827 59.0573 66.7992C59.6363 67.0103 60.099 67.3891 60.4454 67.9357C60.7917 68.4823 60.9649 69.1073 60.9649 69.8109C60.9649 70.7038 60.7024 71.4425 60.1775 72.027C59.6525 72.606 58.8678 72.9713 57.8234 73.1229C58.3429 73.4259 58.7704 73.7587 59.106 74.1213C59.4469 74.4839 59.9042 75.1279 60.4778 76.0533L61.9309 78.375H59.0573L57.3201 75.7855C56.7031 74.86 56.281 74.2783 56.0537 74.0402C55.8264 73.7966 55.5856 73.6316 55.3312 73.545C55.0769 73.453 54.6737 73.407 54.1217 73.407H53.6346V78.375H51.2318ZM53.6346 71.5074H55.4124C56.5651 71.5074 57.2849 71.4587 57.5717 71.3613C57.8585 71.2639 58.0831 71.0962 58.2455 70.858C58.4078 70.6199 58.489 70.3223 58.489 69.9651C58.489 69.5646 58.3808 69.2426 58.1643 68.9991C57.9532 68.7501 57.6529 68.5932 57.2632 68.5283C57.0684 68.5012 56.4839 68.4877 55.5098 68.4877H53.6346V71.5074ZM14.7834 98.375V86.5719H17.1863V96.3699H23.1609V98.375H14.7834ZM24.3948 92.4978C24.3948 91.2856 24.5761 90.2681 24.9387 89.4456C25.2092 88.8394 25.5773 88.2956 26.0427 87.8139C26.5135 87.3323 27.0276 86.9751 27.585 86.7424C28.3264 86.4285 29.1815 86.2715 30.1502 86.2715C31.9036 86.2715 33.3053 86.8154 34.3552 87.9032C35.4105 88.991 35.9381 90.5036 35.9381 92.441C35.9381 94.3622 35.4159 95.8666 34.3714 96.9544C33.3269 98.0368 31.9307 98.5779 30.1827 98.5779C28.413 98.5779 27.006 98.0395 25.9615 96.9625C24.917 95.8802 24.3948 94.3919 24.3948 92.4978ZM26.8707 92.4166C26.8707 93.7642 27.1818 94.787 27.8042 95.4851C28.4266 96.1778 29.2167 96.5242 30.1746 96.5242C31.1324 96.5242 31.9172 96.1805 32.5287 95.4932C33.1456 94.8005 33.4541 93.7642 33.4541 92.3842C33.4541 91.0204 33.1537 90.003 32.553 89.3319C31.9577 88.6608 31.1649 88.3253 30.1746 88.3253C29.1842 88.3253 28.386 88.6663 27.7798 89.3481C27.1737 90.0246 26.8707 91.0474 26.8707 92.4166ZM43.3577 93.9996V91.9945H48.5367V96.7352C48.0334 97.2223 47.3029 97.6525 46.345 98.0259C45.3925 98.3939 44.4265 98.5779 43.447 98.5779C42.2023 98.5779 41.1172 98.3182 40.1918 97.7986C39.2664 97.2737 38.5709 96.5269 38.1055 95.5582C37.6401 94.584 37.4074 93.526 37.4074 92.3842C37.4074 91.1449 37.6672 90.0436 38.1867 89.0803C38.7062 88.117 39.4666 87.3783 40.4678 86.8641C41.2308 86.4691 42.1806 86.2715 43.3171 86.2715C44.7945 86.2715 45.9472 86.5827 46.7752 87.2051C47.6086 87.822 48.1444 88.6771 48.3825 89.7703L45.9959 90.2167C45.8281 89.6323 45.5116 89.1723 45.0461 88.8367C44.5861 88.4958 44.0098 88.3253 43.3171 88.3253C42.2672 88.3253 41.4311 88.6581 40.8087 89.3238C40.1918 89.9894 39.8833 90.9771 39.8833 92.2867C39.8833 93.6992 40.1972 94.7599 40.825 95.4689C41.4527 96.1724 42.2753 96.5242 43.2927 96.5242C43.796 96.5242 44.2993 96.4268 44.8026 96.2319C45.3113 96.0317 45.747 95.7909 46.1096 95.5095V93.9996H43.3577ZM50.2739 92.4978C50.2739 91.2856 50.4552 90.2681 50.8178 89.4456C51.0884 88.8394 51.4564 88.2956 51.9218 87.8139C52.3926 87.3323 52.9068 86.9751 53.4642 86.7424C54.2056 86.4285 55.0606 86.2715 56.0294 86.2715C57.7828 86.2715 59.1844 86.8154 60.2343 87.9032C61.2896 88.991 61.8173 90.5036 61.8173 92.441C61.8173 94.3622 61.295 95.8666 60.2505 96.9544C59.2061 98.0368 57.8098 98.5779 56.0618 98.5779C54.2922 98.5779 52.8851 98.0395 51.8406 96.9625C50.7962 95.8802 50.2739 94.3919 50.2739 92.4978ZM52.7498 92.4166C52.7498 93.7642 53.061 94.787 53.6833 95.4851C54.3057 96.1778 55.0958 96.5242 56.0537 96.5242C57.0116 96.5242 57.7963 96.1805 58.4078 95.4932C59.0248 94.8005 59.3333 93.7642 59.3333 92.3842C59.3333 91.0204 59.0329 90.003 58.4322 89.3319C57.8369 88.6608 57.0441 88.3253 56.0537 88.3253C55.0634 88.3253 54.2651 88.6663 53.659 89.3481C53.0529 90.0246 52.7498 91.0474 52.7498 92.4166Z" fill="#667085"/>
</svg>
