<svg width="22" height="22" viewBox="0 0 22 22" fill="none" xmlns="http://www.w3.org/2000/svg">
<g clip-path="url(#clip0_136_3833)">
<path d="M2.46283 14.3413L4.21201 13.3315C4.30676 13.2768 4.41794 13.2578 4.52548 13.2779L7.9671 13.922C8.24994 13.975 8.51102 13.7572 8.50975 13.4695L8.49634 10.454C8.49598 10.3721 8.51758 10.2915 8.55891 10.2208L10.2957 7.24728C10.3861 7.09253 10.378 6.89928 10.275 6.75264L7.35066 2.59013M17.4168 4.45405C12.3752 6.87496 15.125 10.0833 16.0418 10.5416C17.7625 11.4018 20.1553 11.4582 20.1553 11.4582C20.1628 11.3064 20.1666 11.1536 20.1666 10.9999C20.1666 5.93731 16.0626 1.83325 11 1.83325C5.93737 1.83325 1.83331 5.93731 1.83331 10.9999C1.83331 16.0625 5.93737 20.1666 11 20.1666C11.1537 20.1666 11.3065 20.1628 11.4583 20.1553M15.3613 20.1114L12.4584 12.4583L20.1115 15.3612L16.7178 16.7178L15.3613 20.1114Z" stroke="#475467" stroke-width="1.83333" stroke-linecap="round" stroke-linejoin="round"/>
</g>
<defs>
<clipPath id="clip0_136_3833">
<rect width="22" height="22" fill="white"/>
</clipPath>
</defs>
</svg>
