<svg width="22" height="22" viewBox="0 0 22 22" fill="none" xmlns="http://www.w3.org/2000/svg">
<path fill-rule="evenodd" clip-rule="evenodd" d="M11 20.9647C16.7892 20.9647 21.4824 16.2716 21.4824 10.4824C21.4824 4.69311 16.7892 0 11 0C5.21075 0 0.517639 4.69311 0.517639 10.4824C0.517639 12.3624 1.01255 14.1268 1.8792 15.6524L0.517639 20.9647L5.99457 19.6947C7.48195 20.5046 9.18724 20.9647 11 20.9647ZM11 19.3521C15.8986 19.3521 19.8697 15.381 19.8697 10.4824C19.8697 5.58377 15.8986 1.61267 11 1.61267C6.10141 1.61267 2.13031 5.58377 2.13031 10.4824C2.13031 12.3737 2.72231 14.1268 3.73111 15.5665L2.93665 18.5457L5.96841 17.7878C7.39808 18.7743 9.13157 19.3521 11 19.3521Z" fill="#98A2B3"/>
<path fill-rule="evenodd" clip-rule="evenodd" d="M10.9998 19.4668C15.962 19.4668 19.9847 15.4442 19.9847 10.4819C19.9847 5.51974 15.962 1.49707 10.9998 1.49707C6.03762 1.49707 2.01495 5.51974 2.01495 10.4819C2.01495 12.3979 2.61464 14.1737 3.63654 15.6321L2.83176 18.65L5.9029 17.8822C7.35114 18.8816 9.10714 19.4668 10.9998 19.4668ZM7.44901 5.1587C7.8049 5.15562 8.14911 5.15264 8.37955 5.61548C8.57893 6.01595 8.82411 6.70349 9.11351 7.52482C9.11475 7.52833 9.11601 7.53188 9.11727 7.53547C9.18485 7.72704 9.29035 8.02613 9.15169 8.22437C9.01042 8.42633 8.69542 8.83272 8.46729 9.09595C8.40886 9.16338 8.29175 9.31767 8.45134 9.56914C8.49101 9.63166 8.52525 9.69572 8.56299 9.76629C8.71497 10.0506 8.92355 10.4408 9.77179 11.263C10.6279 12.093 11.702 12.5707 12.0982 12.7297C12.2058 12.7907 12.4645 12.8725 12.638 12.711C12.7178 12.6367 12.8681 12.4447 13.032 12.2353C13.2245 11.9894 13.4359 11.7194 13.5739 11.5879C13.5781 11.5841 13.5824 11.5802 13.5868 11.5761C13.6791 11.4915 13.8255 11.3573 14.0945 11.465C14.3301 11.5593 15.234 11.9943 15.9168 12.3229C16.0511 12.3875 16.1768 12.448 16.2872 12.501C16.3957 12.5354 16.5533 12.6621 16.5533 12.916C16.5533 13.4889 16.1477 15.1853 14.1764 15.2204C12.2051 15.2555 9.83062 14.2245 8.02344 12.2315C6.15087 10.1664 5.59515 8.78594 5.59515 7.52482C5.59515 5.98603 6.67148 5.15921 7.36175 5.15921C7.39088 5.15921 7.41998 5.15895 7.44901 5.1587Z" fill="#98A2B3"/>
</svg>
